<?xml version="1.0" encoding="UTF-8" standalone="no"?>
<svg width="161" height="45" xmlns="http://www.w3.org/2000/svg" xmlns:undefined="http://www.bohemiancoding.com/sketch/ns" version="1.1">
 <g>
  <title>Layer 1</title>
  <g fill-rule="evenodd" fill="none" id="Page-1">
   <svg y="-6.57589" x="0" id="svg_3" viewBox="0 0 823 89">
    <g id="svg_1">
     <path id="svg_4" fill="black" d="m96.2744,41.3318c5.3946,-4.3329 8.3506,-10.8867 8.3506,-16.393c0,-13.2679 -10.3036,-23.33614 -27.7029,-23.33614l-76.9221,0l0,19.90184l26.328,32.2595l48.6469,0c4.8051,0 8.0124,2.7475 8.0124,6.8629c0,4.1154 -3.2073,6.8629 -7.6688,6.8629l-48.9905,0l0,-13.7258l-26.328,0l0,33.6333l79.78,0c20.377,0 30.217,-10.5261 30.217,-24.9388c0,-8.5113 -4.702,-17.0914 -13.7283,-21.1267l0.0057,0zm-26.1046,-6.1016l-43.8418,0l0,-13.7257l43.4981,0c4.6906,0 7.7833,2.8619 7.7833,6.8628c0,4.001 -3.0927,6.8629 -7.4396,6.8629z"/>
     <path id="svg_5" fill="black" d="m169.176,24.0229l39.266,0l0,63.3744l27.009,0l0,-63.3744l39.266,0l0,-22.42024l-105.541,0l0,22.42024z"/>
     <path id="svg_6" fill="black" d="m152.355,1.60266l-27.015,0l0,85.80034l27.015,0l0,-85.80034z"/>
     <path id="svg_7" fill="black" d="m717.465,1.60266l0,22.42024l39.26,0l0,63.3744l27.015,0l0,-63.3744l39.26,0l0,-22.42024l-105.535,0z"/>
     <path id="svg_8" fill="black" d="m355.872,33.7478l-23.35,-1.0303c-13.047,-0.5724 -17.514,-2.404 -17.514,-6.0616c0,-3.6575 4.92,-5.2602 19.346,-5.2602l13.162,0c13.619,0 20.944,2.1751 22.777,7.7787l28.389,0c-2.061,-19.67853 -20.6,-29.16866 -52.083,-29.16866l-10.99,0c-33.195,0 -48.533,10.06826 -48.533,27.57176c0,17.5035 13.963,25.7401 41.208,26.8849l25.297,1.0302c13.619,0.5724 18.201,2.2896 18.201,6.5195c0,3.8922 -4.576,5.6036 -19.69,5.6036l-14.765,0c-14.65,0 -21.517,-2.404 -23.465,-8.58l-28.389,0c1.947,20.7031 18.43,29.97 52.885,29.97l13.046,0c34.684,0 48.074,-9.9537 48.074,-27.8007c0,-20.022 -16.941,-26.3125 -43.612,-27.4572l0.006,0z"/>
     <path id="svg_9" fill="black" d="m673.623,31.8016l-59.065,0l0,-30.19894l-26.665,0l0,85.79464l26.665,0l0,-33.6333l59.065,0l0,33.6333l26.672,0l0,-85.79464l-26.672,0l0,30.19894z"/>
     <path id="svg_10" fill="black" d="m442.976,1.60266l-27.015,0l0,85.80034l27.015,0l0,-85.80034z"/>
     <path id="svg_11" fill="black" d="m459.115,44.5028c0,21.9624 16.139,42.9002 47.158,42.9002l60.325,0l0,-42.7857l-26.328,0l0,20.3654l-30.675,0c-14.421,0 -23.235,-8.9234 -23.235,-20.4799c0,-11.5564 8.814,-20.4799 23.235,-20.4799l57.003,0l0,-22.42024l-60.325,0c-31.019,0 -47.158,21.04654 -47.158,42.90014z"/>
    </g>
   </svg>
   <g id="Group">
    <path fill="#1A345F" id="Shape" d="m2.506,30.43411l-2.506,0l0,-0.456l5.558,0l0,0.456l-2.506,0l0,7.221l-0.546,0l0,-7.221l0,0z"/>
    <path fill="#1A345F" id="Shape" d="m6.298,29.56811l0.547,0l0,3.599l0.023,0c0.16,-0.307 0.422,-0.603 0.74,-0.786c0.319,-0.205 0.695,-0.319 1.105,-0.319c0.512,0 1.902,0.262 1.902,2.301l0,3.291l-0.547,0l0,-3.235c0,-0.991 -0.387,-1.879 -1.504,-1.879c-0.774,0 -1.412,0.558 -1.652,1.23c-0.057,0.171 -0.068,0.319 -0.068,0.547l0,3.337l-0.546,0l0,-8.086l0,0z"/>
    <path fill="#1A345F" id="Shape" d="m12.481,34.86411c0,1.743 0.945,2.437 2.084,2.437c0.797,0 1.207,-0.159 1.515,-0.307l0.137,0.422c-0.205,0.114 -0.763,0.353 -1.72,0.353c-1.572,0 -2.551,-1.139 -2.551,-2.745c0,-1.823 1.048,-2.961 2.46,-2.961c1.788,0 2.13,1.686 2.13,2.472c0,0.148 0,0.227 -0.023,0.33l-4.032,0l0,-0.001zm3.485,-0.433c0.012,-0.763 -0.307,-1.913 -1.629,-1.913c-1.207,0 -1.731,1.071 -1.834,1.913l3.463,0l0,0z"/>
    <path fill="#1A345F" id="Shape" d="m20.179,36.81211c0.433,0.296 1.036,0.501 1.674,0.501c1.15,0 1.856,-0.649 1.856,-1.594c0,-0.866 -0.444,-1.367 -1.56,-1.799c-1.23,-0.433 -1.97,-1.071 -1.97,-2.118c0,-1.128 0.922,-1.948 2.232,-1.948c0.718,0 1.264,0.182 1.526,0.364l-0.205,0.456c-0.205,-0.148 -0.695,-0.364 -1.355,-0.364c-1.241,0 -1.663,0.797 -1.663,1.4c0,0.855 0.49,1.287 1.594,1.72c1.264,0.512 1.936,1.082 1.936,2.232c0,1.116 -0.797,2.118 -2.437,2.118c-0.661,0 -1.435,-0.216 -1.834,-0.524l0.206,-0.444l0,0z"/>
    <path fill="#1A345F" id="Shape" d="m26.454,30.98011l0,1.208l1.56,0l0,0.444l-1.56,0l0,3.553c0,0.695 0.216,1.128 0.797,1.128c0.285,0 0.489,-0.034 0.626,-0.08l0.069,0.41c-0.182,0.08 -0.433,0.137 -0.763,0.137c-0.399,0 -0.729,-0.125 -0.934,-0.387c-0.25,-0.285 -0.342,-0.752 -0.342,-1.31l0,-3.451l-0.923,0l0,-0.444l0.923,0l0,-1.003l0.547,-0.205l0,0z"/>
    <path fill="#1A345F" id="Shape" d="m32.626,36.35611c0,0.433 0.011,0.877 0.08,1.299l-0.501,0l-0.08,-0.786l-0.023,0c-0.273,0.421 -0.877,0.911 -1.754,0.911c-1.105,0 -1.606,-0.774 -1.606,-1.503c0,-1.264 1.105,-2.028 3.337,-2.005l0,-0.148c0,-0.536 -0.102,-1.618 -1.401,-1.606c-0.479,0 -0.98,0.125 -1.378,0.41l-0.171,-0.398c0.501,-0.331 1.116,-0.467 1.606,-0.467c1.583,0 1.891,1.185 1.891,2.153l0,2.14l0,0zm-0.547,-1.629c-1.196,-0.034 -2.767,0.148 -2.767,1.458c0,0.786 0.524,1.139 1.093,1.139c0.911,0 1.435,-0.558 1.617,-1.094c0.046,-0.114 0.057,-0.239 0.057,-0.33l0,-1.173l0,0z"/>
    <path fill="#1A345F" id="Shape" d="m34.39,33.49811c0,-0.501 -0.012,-0.877 -0.046,-1.31l0.513,0l0.034,0.991l0.023,0c0.296,-0.615 0.991,-1.116 1.879,-1.116c0.524,0 1.913,0.262 1.913,2.312l0,3.28l-0.546,0l0,-3.235c0,-0.991 -0.387,-1.89 -1.515,-1.89c-0.763,0 -1.424,0.547 -1.64,1.253c-0.034,0.137 -0.068,0.318 -0.068,0.489l0,3.383l-0.547,0l0,-4.157l0,0z"/>
    <path fill="#1A345F" id="Shape" d="m44.856,29.56811l0,6.811c0,0.41 0.011,0.888 0.045,1.275l-0.49,0l-0.045,-1.036l-0.023,0c-0.285,0.603 -0.934,1.161 -1.948,1.161c-1.355,0 -2.357,-1.127 -2.357,-2.756c-0.011,-1.823 1.116,-2.961 2.46,-2.961c0.945,0 1.549,0.49 1.788,0.968l0.023,0l0,-3.462l0.547,0l0,0zm-0.547,4.784c0,-0.148 -0.011,-0.353 -0.057,-0.501c-0.182,-0.729 -0.831,-1.333 -1.72,-1.333c-1.196,0 -1.947,1.036 -1.947,2.448c0,1.23 0.615,2.358 1.913,2.358c0.786,0 1.526,-0.524 1.754,-1.424c0.046,-0.148 0.057,-0.285 0.057,-0.456l0,-1.092l0,0z"/>
    <path fill="#1A345F" id="Shape" d="m50.094,36.35611c0,0.433 0.011,0.877 0.08,1.299l-0.501,0l-0.08,-0.786l-0.023,0c-0.273,0.421 -0.877,0.911 -1.754,0.911c-1.105,0 -1.606,-0.774 -1.606,-1.503c0,-1.264 1.105,-2.028 3.337,-2.005l0,-0.148c0,-0.536 -0.102,-1.618 -1.401,-1.606c-0.479,0 -0.98,0.125 -1.378,0.41l-0.171,-0.398c0.501,-0.331 1.116,-0.467 1.606,-0.467c1.583,0 1.891,1.185 1.891,2.153l0,2.14l0,0zm-0.547,-1.629c-1.196,-0.034 -2.767,0.148 -2.767,1.458c0,0.786 0.524,1.139 1.093,1.139c0.911,0 1.435,-0.558 1.617,-1.094c0.046,-0.114 0.057,-0.239 0.057,-0.33l0,-1.173l0,0z"/>
    <path fill="#1A345F" id="Shape" d="m51.846,33.82811c0,-0.547 -0.011,-1.105 -0.045,-1.64l0.501,0l0.023,1.105l0.034,0c0.239,-0.684 0.809,-1.23 1.549,-1.23c0.08,0 0.16,0.012 0.228,0.023l0,0.524c-0.08,-0.023 -0.16,-0.023 -0.262,-0.023c-0.752,0 -1.287,0.649 -1.435,1.526c-0.034,0.159 -0.045,0.342 -0.045,0.524l0,3.018l-0.547,0l0,-3.827l-0.001,0z"/>
    <path fill="#1A345F" id="Shape" d="m59.455,29.56811l0,6.811c0,0.41 0.011,0.888 0.045,1.275l-0.49,0l-0.045,-1.036l-0.023,0c-0.285,0.603 -0.934,1.161 -1.948,1.161c-1.355,0 -2.357,-1.127 -2.357,-2.756c-0.011,-1.823 1.116,-2.961 2.46,-2.961c0.945,0 1.549,0.49 1.788,0.968l0.023,0l0,-3.462l0.547,0l0,0zm-0.547,4.784c0,-0.148 -0.011,-0.353 -0.057,-0.501c-0.182,-0.729 -0.831,-1.333 -1.72,-1.333c-1.196,0 -1.947,1.036 -1.947,2.448c0,1.23 0.615,2.358 1.913,2.358c0.786,0 1.526,-0.524 1.754,-1.424c0.046,-0.148 0.057,-0.285 0.057,-0.456l0,-1.092l0,0z"/>
    <path fill="#1A345F" id="Shape" d="m64.487,30.62711c0,0.251 -0.171,0.467 -0.456,0.467c-0.25,0 -0.421,-0.217 -0.421,-0.467c0,-0.25 0.194,-0.478 0.444,-0.478c0.251,0 0.433,0.216 0.433,0.478l0,0zm-0.706,7.028l0,-5.467l0.547,0l0,5.467l-0.547,0l0,0z"/>
    <path fill="#1A345F" id="Shape" d="m66.161,33.49811c0,-0.501 -0.012,-0.877 -0.046,-1.31l0.513,0l0.034,0.991l0.023,0c0.296,-0.615 0.991,-1.116 1.879,-1.116c0.524,0 1.913,0.262 1.913,2.312l0,3.28l-0.547,0l0,-3.235c0,-0.991 -0.387,-1.89 -1.515,-1.89c-0.763,0 -1.424,0.547 -1.64,1.253c-0.034,0.137 -0.068,0.318 -0.068,0.489l0,3.383l-0.547,0l0,-4.157l0.001,0z"/>
    <path fill="#04A2D1" id="Shape" d="m74.549,36.24711c0.42,0.242 1.051,0.452 1.712,0.452c0.83,0 1.292,-0.389 1.292,-0.966c0,-0.536 -0.357,-0.851 -1.26,-1.177c-1.166,-0.42 -1.912,-1.04 -1.912,-2.058c0,-1.155 0.966,-2.037 2.5,-2.037c0.767,0 1.334,0.168 1.701,0.357l-0.315,1.04c-0.252,-0.137 -0.746,-0.336 -1.408,-0.336c-0.819,0 -1.176,0.441 -1.176,0.851c0,0.546 0.41,0.798 1.355,1.166c1.229,0.462 1.827,1.081 1.827,2.1c0,1.134 -0.861,2.122 -2.689,2.122c-0.746,0 -1.523,-0.21 -1.912,-0.442l0.285,-1.072l0,0z"/>
    <path fill="#04A2D1" id="Shape" d="m83.995,34.51411l-2.668,0l0,2.08l2.983,0l0,1.061l-4.275,0l0,-7.079l4.117,0l0,1.061l-2.825,0l0,1.828l2.668,0l0,1.049l0,0z"/>
    <path fill="#04A2D1" id="Shape" d="m90.519,37.44411c-0.304,0.158 -0.976,0.315 -1.827,0.315c-2.248,0 -3.613,-1.408 -3.613,-3.561c0,-2.332 1.617,-3.739 3.781,-3.739c0.851,0 1.46,0.179 1.722,0.315l-0.284,1.029c-0.336,-0.148 -0.798,-0.273 -1.386,-0.273c-1.439,0 -2.479,0.903 -2.479,2.605c0,1.554 0.914,2.552 2.468,2.552c0.525,0 1.071,-0.105 1.408,-0.263l0.21,1.02l0,0z"/>
    <path fill="#04A2D1" id="Shape" d="m92.906,30.57611l0,4.128c0,1.386 0.578,2.027 1.449,2.027c0.935,0 1.491,-0.641 1.491,-2.027l0,-4.128l1.292,0l0,4.043c0,2.185 -1.124,3.151 -2.825,3.151c-1.638,0 -2.699,-0.914 -2.699,-3.141l0,-4.054l1.292,0l0,0.001z"/>
    <path fill="#04A2D1" id="Shape" d="m98.623,30.67011c0.483,-0.084 1.208,-0.148 1.953,-0.148c1.019,0 1.712,0.168 2.185,0.567c0.389,0.326 0.609,0.82 0.609,1.419c0,0.913 -0.619,1.533 -1.281,1.775l0,0.032c0.504,0.189 0.809,0.682 0.987,1.365c0.22,0.882 0.41,1.701 0.557,1.975l-1.334,0c-0.105,-0.21 -0.273,-0.788 -0.472,-1.67c-0.2,-0.924 -0.536,-1.219 -1.271,-1.239l-0.652,0l0,2.909l-1.281,0l0,-6.985l0,0zm1.281,3.13l0.767,0c0.872,0 1.418,-0.462 1.418,-1.166c0,-0.777 -0.546,-1.134 -1.386,-1.134c-0.41,0 -0.672,0.032 -0.798,0.063l0,2.237l-0.001,0z"/>
    <path fill="#04A2D1" id="Shape" d="m105.894,30.57611l0,7.079l-1.292,0l0,-7.079l1.292,0l0,0z"/>
    <path fill="#04A2D1" id="Shape" d="m108.73,31.65711l-2.017,0l0,-1.081l5.346,0l0,1.081l-2.037,0l0,5.998l-1.292,0l0,-5.998l0,0z"/>
    <path fill="#04A2D1" id="Shape" d="m114.667,37.65511l0,-2.951l-2.237,-4.128l1.471,0l0.851,1.817c0.242,0.525 0.42,0.924 0.609,1.408l0.021,0c0.179,-0.452 0.378,-0.893 0.619,-1.408l0.851,-1.817l1.46,0l-2.353,4.096l0,2.983l-1.292,0l0,0z"/>
    <path fill="#04A2D1" id="Shape" d="m121.277,30.67011c0.483,-0.084 1.208,-0.148 1.953,-0.148c1.019,0 1.712,0.168 2.185,0.567c0.389,0.326 0.609,0.82 0.609,1.419c0,0.913 -0.619,1.533 -1.281,1.775l0,0.032c0.504,0.189 0.809,0.682 0.987,1.365c0.22,0.882 0.41,1.701 0.557,1.975l-1.334,0c-0.105,-0.21 -0.273,-0.788 -0.472,-1.67c-0.2,-0.924 -0.536,-1.219 -1.271,-1.239l-0.652,0l0,2.909l-1.281,0l0,-6.985l0,0zm1.282,3.13l0.767,0c0.872,0 1.418,-0.462 1.418,-1.166c0,-0.777 -0.546,-1.134 -1.386,-1.134c-0.41,0 -0.672,0.032 -0.799,0.063l0,2.237l0,0z"/>
    <path fill="#04A2D1" id="Shape" d="m128.748,35.64811l-0.609,2.006l-1.334,0l2.269,-7.079l1.649,0l2.3,7.079l-1.386,0l-0.641,-2.006l-2.248,0l0,0zm2.027,-0.976l-0.556,-1.744c-0.137,-0.43 -0.252,-0.913 -0.357,-1.323l-0.021,0c-0.105,0.41 -0.21,0.904 -0.336,1.323l-0.547,1.744l1.817,0l0,0z"/>
    <path fill="#04A2D1" id="Shape" d="m134.516,31.65711l-2.017,0l0,-1.081l5.346,0l0,1.081l-2.037,0l0,5.998l-1.292,0l0,-5.998l0,0z"/>
    <path fill="#04A2D1" id="Shape" d="m139.97,30.57611l0,7.079l-1.292,0l0,-7.079l1.292,0l0,0z"/>
    <path fill="#04A2D1" id="Shape" d="m141.452,37.65511l0,-7.079l1.471,0l1.827,3.036c0.473,0.788 0.882,1.607 1.208,2.374l0.021,0c-0.084,-0.945 -0.115,-1.859 -0.115,-2.941l0,-2.468l1.197,0l0,7.079l-1.334,0l-1.848,-3.109c-0.452,-0.777 -0.924,-1.649 -1.271,-2.447l-0.032,0.01c0.052,0.914 0.063,1.849 0.063,3.014l0,2.532l-1.187,0l0,-0.001z"/>
    <path fill="#04A2D1" id="Shape" d="m154.227,37.32911c-0.451,0.168 -1.334,0.399 -2.279,0.399c-1.197,0 -2.1,-0.305 -2.773,-0.945c-0.63,-0.599 -0.998,-1.533 -0.987,-2.604c0,-2.238 1.596,-3.676 3.938,-3.676c0.872,0 1.555,0.179 1.88,0.336l-0.284,1.04c-0.389,-0.168 -0.861,-0.305 -1.607,-0.305c-1.513,0 -2.573,0.893 -2.573,2.542c0,1.607 0.987,2.562 2.457,2.562c0.463,0 0.809,-0.062 0.977,-0.147l0,-1.765l-1.25,0l0,-1.018l2.499,0l0,3.581l0.002,0z"/>
    <path fill="#04A2D1" id="Shape" d="m155.521,36.24711c0.42,0.242 1.051,0.452 1.712,0.452c0.829,0 1.292,-0.389 1.292,-0.966c0,-0.536 -0.357,-0.851 -1.261,-1.177c-1.165,-0.42 -1.912,-1.04 -1.912,-2.058c0,-1.155 0.967,-2.037 2.5,-2.037c0.767,0 1.334,0.168 1.701,0.357l-0.315,1.04c-0.252,-0.137 -0.746,-0.336 -1.408,-0.336c-0.819,0 -1.176,0.441 -1.176,0.851c0,0.546 0.41,0.798 1.355,1.166c1.228,0.462 1.827,1.081 1.827,2.1c0,1.134 -0.861,2.122 -2.689,2.122c-0.746,0 -1.523,-0.21 -1.912,-0.442l0.286,-1.072l0,0z"/>
   </g>
  </g>
 </g>
</svg>