<?xml version="1.0" encoding="UTF-8" standalone="no"?>
<svg width="161px" height="45px" viewBox="0 0 161 45" version="1.1" xmlns="http://www.w3.org/2000/svg" xmlns:xlink="http://www.w3.org/1999/xlink" xmlns:sketch="http://www.bohemiancoding.com/sketch/ns">
    <!-- Generator: Sketch 3.4 (15588) - http://www.bohemiancoding.com/sketch -->
    <title>bs-logo-tagline</title>
    <desc>Created with Sketch.</desc>
    <defs></defs>
    <g id="Page-1" stroke="none" stroke-width="1" fill="none" fill-rule="evenodd" sketch:type="MSPage">
        <g id="bs-logo-tagline" sketch:type="MSLayerGroup">
            <g id="BitSight_3_" sketch:type="MSShapeGroup">
                <g id="T__x28_2_x29__3_" transform="translate(138.000000, 0.000000)" fill="#1A345F">
                    <path d="M8.393,4.976 L0.012,4.976 L0.012,0.48 L22.231,0.48 L22.231,4.976 L13.763,4.976 L13.763,29.901 L8.394,29.901 L8.394,4.976 L8.393,4.976 Z" id="Shape"></path>
                </g>
                <g id="H_3_" transform="translate(111.000000, 0.000000)" fill="#1A345F">
                    <path d="M5.78,0.48 L5.78,12.266 L18.22,12.266 L18.22,0.48 L23.59,0.48 L23.59,29.902 L18.22,29.902 L18.22,16.937 L5.78,16.937 L5.78,29.902 L0.411,29.902 L0.411,0.48 L5.78,0.48 L5.78,0.48 Z" id="Shape"></path>
                </g>
                <g id="G_3_" transform="translate(82.000000, 0.000000)" fill="#1A345F">
                    <path d="M25.911,28.549 C24.033,29.248 20.366,30.208 16.439,30.208 C11.461,30.208 7.707,28.942 4.914,26.278 C2.295,23.79 0.768,19.905 0.81,15.453 C0.81,6.155 7.446,0.175 17.18,0.175 C20.803,0.175 23.64,0.916 24.994,1.572 L23.815,5.894 C22.199,5.196 20.236,4.627 17.136,4.627 C10.85,4.627 6.441,8.338 6.441,15.191 C6.441,21.87 10.544,25.844 16.654,25.844 C18.575,25.844 20.017,25.581 20.715,25.232 L20.715,17.898 L15.52,17.898 L15.52,13.665 L25.91,13.665 L25.91,28.549 L25.911,28.549 Z" id="Shape"></path>
                </g>
                <g id="I__x28_2_x29__3_" transform="translate(73.000000, 0.000000)" fill="#1A345F">
                    <path d="M6.328,0.48 L6.328,29.902 L0.959,29.902 L0.959,0.48 L6.328,0.48 L6.328,0.48 Z" id="Shape"></path>
                </g>
                <g id="S_3_" transform="translate(51.000000, 0.000000)" fill="#1A345F">
                    <path d="M1.887,24.053 C3.634,25.057 6.252,25.93 9.003,25.93 C12.451,25.93 14.372,24.314 14.372,21.913 C14.372,19.686 12.888,18.378 9.135,17.024 C4.289,15.279 1.189,12.702 1.189,8.468 C1.188,3.666 5.205,0 11.578,0 C14.764,0 17.123,0.698 18.649,1.484 L17.339,5.806 C16.292,5.237 14.239,4.409 11.49,4.409 C8.085,4.409 6.601,6.241 6.601,7.944 C6.601,10.214 8.304,11.262 12.233,12.791 C17.339,14.71 19.827,17.285 19.827,21.521 C19.827,26.236 16.248,30.339 8.652,30.339 C5.554,30.339 2.323,29.465 0.708,28.505 L1.887,24.053 L1.887,24.053 Z" id="Shape"></path>
                </g>
                <g id="T_3_" transform="translate(28.000000, 0.000000)" fill="#04A2D1">
                    <path d="M9.693,3.709 L0.743,3.709 L0.743,0.48 L22.526,0.48 L22.526,3.709 L13.533,3.709 L13.533,29.902 L9.692,29.902 L9.692,3.709 L9.693,3.709 Z" id="Shape"></path>
                </g>
                <g id="I_3_" transform="translate(21.000000, 0.000000)" fill="#04A2D1">
                    <path d="M4.465,0.48 L4.465,29.902 L0.667,29.902 L0.667,0.48 L4.465,0.48 L4.465,0.48 Z" id="Shape"></path>
                </g>
                <g id="B_3_" fill="#04A2D1">
                    <path d="M0.009,0.873 C1.667,0.523 4.287,0.262 6.949,0.262 C10.747,0.262 13.192,0.916 15.025,2.402 C16.553,3.536 17.47,5.283 17.47,7.597 C17.47,10.433 15.593,12.922 12.494,14.057 L12.494,14.144 C15.288,14.843 18.561,17.156 18.561,21.521 C18.561,24.054 17.557,25.973 16.073,27.414 C14.02,29.291 10.704,30.164 5.902,30.164 C3.283,30.164 1.274,29.99 0.009,29.815 L0.009,0.873 L0.009,0.873 Z M3.807,12.92 L7.255,12.92 C11.271,12.92 13.628,10.825 13.628,7.988 C13.628,4.538 11.009,3.186 7.168,3.186 C5.421,3.186 4.419,3.316 3.807,3.447 L3.807,12.92 L3.807,12.92 Z M3.807,27.02 C4.548,27.151 5.639,27.194 6.994,27.194 C10.922,27.194 14.545,25.755 14.545,21.475 C14.545,17.461 11.097,15.801 6.949,15.801 L3.807,15.801 L3.807,27.02 L3.807,27.02 Z" id="Shape"></path>
                </g>
            </g>
            <g id="Group" transform="translate(0.000000, 36.000000)" sketch:type="MSShapeGroup">
                <path d="M2.506,1.01 L0,1.01 L0,0.554 L5.558,0.554 L5.558,1.01 L3.052,1.01 L3.052,8.231 L2.506,8.231 L2.506,1.01 L2.506,1.01 Z" id="Shape" fill="#1A345F"></path>
                <path d="M6.298,0.144 L6.845,0.144 L6.845,3.743 L6.868,3.743 C7.028,3.436 7.29,3.14 7.608,2.957 C7.927,2.752 8.303,2.638 8.713,2.638 C9.225,2.638 10.615,2.9 10.615,4.939 L10.615,8.23 L10.068,8.23 L10.068,4.995 C10.068,4.004 9.681,3.116 8.564,3.116 C7.79,3.116 7.152,3.674 6.912,4.346 C6.855,4.517 6.844,4.665 6.844,4.893 L6.844,8.23 L6.298,8.23 L6.298,0.144 L6.298,0.144 Z" id="Shape" fill="#1A345F"></path>
                <path d="M12.481,5.44 C12.481,7.183 13.426,7.877 14.565,7.877 C15.362,7.877 15.772,7.718 16.08,7.57 L16.217,7.992 C16.012,8.106 15.454,8.345 14.497,8.345 C12.925,8.345 11.946,7.206 11.946,5.6 C11.946,3.777 12.994,2.639 14.406,2.639 C16.194,2.639 16.536,4.325 16.536,5.111 C16.536,5.259 16.536,5.338 16.513,5.441 L12.481,5.441 L12.481,5.44 Z M15.966,5.007 C15.978,4.244 15.659,3.094 14.337,3.094 C13.13,3.094 12.606,4.165 12.503,5.007 L15.966,5.007 L15.966,5.007 Z" id="Shape" fill="#1A345F"></path>
                <path d="M20.179,7.388 C20.612,7.684 21.215,7.889 21.853,7.889 C23.003,7.889 23.709,7.24 23.709,6.295 C23.709,5.429 23.265,4.928 22.149,4.496 C20.919,4.063 20.179,3.425 20.179,2.378 C20.179,1.25 21.101,0.43 22.411,0.43 C23.129,0.43 23.675,0.612 23.937,0.794 L23.732,1.25 C23.527,1.102 23.037,0.886 22.377,0.886 C21.136,0.886 20.714,1.683 20.714,2.286 C20.714,3.141 21.204,3.573 22.308,4.006 C23.572,4.518 24.244,5.088 24.244,6.238 C24.244,7.354 23.447,8.356 21.807,8.356 C21.146,8.356 20.372,8.14 19.973,7.832 L20.179,7.388 L20.179,7.388 Z" id="Shape" fill="#1A345F"></path>
                <path d="M26.454,1.556 L26.454,2.764 L28.014,2.764 L28.014,3.208 L26.454,3.208 L26.454,6.761 C26.454,7.456 26.67,7.889 27.251,7.889 C27.536,7.889 27.74,7.855 27.877,7.809 L27.946,8.219 C27.764,8.299 27.513,8.356 27.183,8.356 C26.784,8.356 26.454,8.231 26.249,7.969 C25.999,7.684 25.907,7.217 25.907,6.659 L25.907,3.208 L24.984,3.208 L24.984,2.764 L25.907,2.764 L25.907,1.761 L26.454,1.556 L26.454,1.556 Z" id="Shape" fill="#1A345F"></path>
                <path d="M32.626,6.932 C32.626,7.365 32.637,7.809 32.706,8.231 L32.205,8.231 L32.125,7.445 L32.102,7.445 C31.829,7.866 31.225,8.356 30.348,8.356 C29.243,8.356 28.742,7.582 28.742,6.853 C28.742,5.589 29.847,4.825 32.079,4.848 L32.079,4.7 C32.079,4.164 31.977,3.082 30.678,3.094 C30.199,3.094 29.698,3.219 29.3,3.504 L29.129,3.106 C29.63,2.775 30.245,2.639 30.735,2.639 C32.318,2.639 32.626,3.824 32.626,4.792 L32.626,6.932 L32.626,6.932 Z M32.079,5.303 C30.883,5.269 29.312,5.451 29.312,6.761 C29.312,7.547 29.836,7.9 30.405,7.9 C31.316,7.9 31.84,7.342 32.022,6.806 C32.068,6.692 32.079,6.567 32.079,6.476 L32.079,5.303 L32.079,5.303 Z" id="Shape" fill="#1A345F"></path>
                <path d="M34.39,4.074 C34.39,3.573 34.378,3.197 34.344,2.764 L34.857,2.764 L34.891,3.755 L34.914,3.755 C35.21,3.14 35.905,2.639 36.793,2.639 C37.317,2.639 38.706,2.901 38.706,4.951 L38.706,8.231 L38.16,8.231 L38.16,4.996 C38.16,4.005 37.773,3.106 36.645,3.106 C35.882,3.106 35.221,3.653 35.005,4.359 C34.971,4.496 34.937,4.677 34.937,4.848 L34.937,8.231 L34.39,8.231 L34.39,4.074 L34.39,4.074 Z" id="Shape" fill="#1A345F"></path>
                <path d="M44.856,0.144 L44.856,6.955 C44.856,7.365 44.867,7.843 44.901,8.23 L44.411,8.23 L44.366,7.194 L44.343,7.194 C44.058,7.797 43.409,8.355 42.395,8.355 C41.04,8.355 40.038,7.228 40.038,5.599 C40.027,3.776 41.154,2.638 42.498,2.638 C43.443,2.638 44.047,3.128 44.286,3.606 L44.309,3.606 L44.309,0.144 L44.856,0.144 L44.856,0.144 Z M44.309,4.928 C44.309,4.78 44.298,4.575 44.252,4.427 C44.07,3.698 43.421,3.094 42.532,3.094 C41.336,3.094 40.585,4.13 40.585,5.542 C40.585,6.772 41.2,7.9 42.498,7.9 C43.284,7.9 44.024,7.376 44.252,6.476 C44.298,6.328 44.309,6.191 44.309,6.02 L44.309,4.928 L44.309,4.928 Z" id="Shape" fill="#1A345F"></path>
                <path d="M50.094,6.932 C50.094,7.365 50.105,7.809 50.174,8.231 L49.673,8.231 L49.593,7.445 L49.57,7.445 C49.297,7.866 48.693,8.356 47.816,8.356 C46.711,8.356 46.21,7.582 46.21,6.853 C46.21,5.589 47.315,4.825 49.547,4.848 L49.547,4.7 C49.547,4.164 49.445,3.082 48.146,3.094 C47.667,3.094 47.166,3.219 46.768,3.504 L46.597,3.106 C47.098,2.775 47.713,2.639 48.203,2.639 C49.786,2.639 50.094,3.824 50.094,4.792 L50.094,6.932 L50.094,6.932 Z M49.547,5.303 C48.351,5.269 46.78,5.451 46.78,6.761 C46.78,7.547 47.304,7.9 47.873,7.9 C48.784,7.9 49.308,7.342 49.49,6.806 C49.536,6.692 49.547,6.567 49.547,6.476 L49.547,5.303 L49.547,5.303 Z" id="Shape" fill="#1A345F"></path>
                <path d="M51.846,4.404 C51.846,3.857 51.835,3.299 51.801,2.764 L52.302,2.764 L52.325,3.869 L52.359,3.869 C52.598,3.185 53.168,2.639 53.908,2.639 C53.988,2.639 54.068,2.651 54.136,2.662 L54.136,3.186 C54.056,3.163 53.976,3.163 53.874,3.163 C53.122,3.163 52.587,3.812 52.439,4.689 C52.405,4.848 52.394,5.031 52.394,5.213 L52.394,8.231 L51.847,8.231 L51.847,4.404 L51.846,4.404 Z" id="Shape" fill="#1A345F"></path>
                <path d="M59.455,0.144 L59.455,6.955 C59.455,7.365 59.466,7.843 59.5,8.23 L59.01,8.23 L58.965,7.194 L58.942,7.194 C58.657,7.797 58.008,8.355 56.994,8.355 C55.639,8.355 54.637,7.228 54.637,5.599 C54.626,3.776 55.753,2.638 57.097,2.638 C58.042,2.638 58.646,3.128 58.885,3.606 L58.908,3.606 L58.908,0.144 L59.455,0.144 L59.455,0.144 Z M58.908,4.928 C58.908,4.78 58.897,4.575 58.851,4.427 C58.669,3.698 58.02,3.094 57.131,3.094 C55.935,3.094 55.184,4.13 55.184,5.542 C55.184,6.772 55.799,7.9 57.097,7.9 C57.883,7.9 58.623,7.376 58.851,6.476 C58.897,6.328 58.908,6.191 58.908,6.02 L58.908,4.928 L58.908,4.928 Z" id="Shape" fill="#1A345F"></path>
                <path d="M64.487,1.203 C64.487,1.454 64.316,1.67 64.031,1.67 C63.781,1.67 63.61,1.453 63.61,1.203 C63.61,0.953 63.804,0.725 64.054,0.725 C64.305,0.725 64.487,0.941 64.487,1.203 L64.487,1.203 Z M63.781,8.231 L63.781,2.764 L64.328,2.764 L64.328,8.231 L63.781,8.231 L63.781,8.231 Z" id="Shape" fill="#1A345F"></path>
                <path d="M66.161,4.074 C66.161,3.573 66.149,3.197 66.115,2.764 L66.628,2.764 L66.662,3.755 L66.685,3.755 C66.981,3.14 67.676,2.639 68.564,2.639 C69.088,2.639 70.477,2.901 70.477,4.951 L70.477,8.231 L69.93,8.231 L69.93,4.996 C69.93,4.005 69.543,3.106 68.415,3.106 C67.652,3.106 66.991,3.653 66.775,4.359 C66.741,4.496 66.707,4.677 66.707,4.848 L66.707,8.231 L66.16,8.231 L66.16,4.074 L66.161,4.074 Z" id="Shape" fill="#1A345F"></path>
                <path d="M74.549,6.823 C74.969,7.065 75.6,7.275 76.261,7.275 C77.091,7.275 77.553,6.886 77.553,6.309 C77.553,5.773 77.196,5.458 76.293,5.132 C75.127,4.712 74.381,4.092 74.381,3.074 C74.381,1.919 75.347,1.037 76.881,1.037 C77.648,1.037 78.215,1.205 78.582,1.394 L78.267,2.434 C78.015,2.297 77.521,2.098 76.859,2.098 C76.04,2.098 75.683,2.539 75.683,2.949 C75.683,3.495 76.093,3.747 77.038,4.115 C78.267,4.577 78.865,5.196 78.865,6.215 C78.865,7.349 78.004,8.337 76.176,8.337 C75.43,8.337 74.653,8.127 74.264,7.895 L74.549,6.823 L74.549,6.823 Z" id="Shape" fill="#04A2D1"></path>
                <path d="M83.995,5.09 L81.327,5.09 L81.327,7.17 L84.31,7.17 L84.31,8.231 L80.035,8.231 L80.035,1.152 L84.152,1.152 L84.152,2.213 L81.327,2.213 L81.327,4.041 L83.995,4.041 L83.995,5.09 L83.995,5.09 Z" id="Shape" fill="#04A2D1"></path>
                <path d="M90.519,8.02 C90.215,8.178 89.543,8.335 88.692,8.335 C86.444,8.335 85.079,6.927 85.079,4.774 C85.079,2.442 86.696,1.035 88.86,1.035 C89.711,1.035 90.32,1.214 90.582,1.35 L90.298,2.379 C89.962,2.231 89.5,2.106 88.912,2.106 C87.473,2.106 86.433,3.009 86.433,4.711 C86.433,6.265 87.347,7.263 88.901,7.263 C89.426,7.263 89.972,7.158 90.309,7 L90.519,8.02 L90.519,8.02 Z" id="Shape" fill="#04A2D1"></path>
                <path d="M92.906,1.152 L92.906,5.28 C92.906,6.666 93.484,7.307 94.355,7.307 C95.29,7.307 95.846,6.666 95.846,5.28 L95.846,1.152 L97.138,1.152 L97.138,5.195 C97.138,7.38 96.014,8.346 94.313,8.346 C92.675,8.346 91.614,7.432 91.614,5.205 L91.614,1.151 L92.906,1.151 L92.906,1.152 Z" id="Shape" fill="#04A2D1"></path>
                <path d="M98.623,1.246 C99.106,1.162 99.831,1.098 100.576,1.098 C101.595,1.098 102.288,1.266 102.761,1.665 C103.15,1.991 103.37,2.485 103.37,3.084 C103.37,3.997 102.751,4.617 102.089,4.859 L102.089,4.891 C102.593,5.08 102.898,5.573 103.076,6.256 C103.296,7.138 103.486,7.957 103.633,8.231 L102.299,8.231 C102.194,8.021 102.026,7.443 101.827,6.561 C101.627,5.637 101.291,5.342 100.556,5.322 L99.904,5.322 L99.904,8.231 L98.623,8.231 L98.623,1.246 L98.623,1.246 Z M99.904,4.376 L100.671,4.376 C101.543,4.376 102.089,3.914 102.089,3.21 C102.089,2.433 101.543,2.076 100.703,2.076 C100.293,2.076 100.031,2.108 99.905,2.139 L99.905,4.376 L99.904,4.376 Z" id="Shape" fill="#04A2D1"></path>
                <path d="M105.894,1.152 L105.894,8.231 L104.602,8.231 L104.602,1.152 L105.894,1.152 L105.894,1.152 Z" id="Shape" fill="#04A2D1"></path>
                <path d="M108.73,2.233 L106.713,2.233 L106.713,1.152 L112.059,1.152 L112.059,2.233 L110.022,2.233 L110.022,8.231 L108.73,8.231 L108.73,2.233 L108.73,2.233 Z" id="Shape" fill="#04A2D1"></path>
                <path d="M114.667,8.231 L114.667,5.28 L112.43,1.152 L113.901,1.152 L114.752,2.969 C114.994,3.494 115.172,3.893 115.361,4.377 L115.382,4.377 C115.561,3.925 115.76,3.484 116.001,2.969 L116.852,1.152 L118.312,1.152 L115.959,5.248 L115.959,8.231 L114.667,8.231 L114.667,8.231 Z" id="Shape" fill="#04A2D1"></path>
                <path d="M121.277,1.246 C121.76,1.162 122.485,1.098 123.23,1.098 C124.249,1.098 124.942,1.266 125.415,1.665 C125.804,1.991 126.024,2.485 126.024,3.084 C126.024,3.997 125.405,4.617 124.743,4.859 L124.743,4.891 C125.247,5.08 125.552,5.573 125.73,6.256 C125.95,7.138 126.14,7.957 126.287,8.231 L124.953,8.231 C124.848,8.021 124.68,7.443 124.481,6.561 C124.281,5.637 123.945,5.342 123.21,5.322 L122.558,5.322 L122.558,8.231 L121.277,8.231 L121.277,1.246 L121.277,1.246 Z M122.559,4.376 L123.326,4.376 C124.198,4.376 124.744,3.914 124.744,3.21 C124.744,2.433 124.198,2.076 123.358,2.076 C122.948,2.076 122.686,2.108 122.559,2.139 L122.559,4.376 L122.559,4.376 Z" id="Shape" fill="#04A2D1"></path>
                <path d="M128.748,6.224 L128.139,8.23 L126.805,8.23 L129.074,1.151 L130.723,1.151 L133.023,8.23 L131.637,8.23 L130.996,6.224 L128.748,6.224 L128.748,6.224 Z M130.775,5.248 L130.219,3.504 C130.082,3.074 129.967,2.591 129.862,2.181 L129.841,2.181 C129.736,2.591 129.631,3.085 129.505,3.504 L128.958,5.248 L130.775,5.248 L130.775,5.248 Z" id="Shape" fill="#04A2D1"></path>
                <path d="M134.516,2.233 L132.499,2.233 L132.499,1.152 L137.845,1.152 L137.845,2.233 L135.808,2.233 L135.808,8.231 L134.516,8.231 L134.516,2.233 L134.516,2.233 Z" id="Shape" fill="#04A2D1"></path>
                <path d="M139.97,1.152 L139.97,8.231 L138.678,8.231 L138.678,1.152 L139.97,1.152 L139.97,1.152 Z" id="Shape" fill="#04A2D1"></path>
                <path d="M141.452,8.231 L141.452,1.152 L142.923,1.152 L144.75,4.188 C145.223,4.976 145.632,5.795 145.958,6.562 L145.979,6.562 C145.895,5.617 145.864,4.703 145.864,3.621 L145.864,1.153 L147.061,1.153 L147.061,8.232 L145.727,8.232 L143.879,5.123 C143.427,4.346 142.955,3.474 142.608,2.676 L142.576,2.686 C142.628,3.6 142.639,4.535 142.639,5.7 L142.639,8.232 L141.452,8.232 L141.452,8.231 Z" id="Shape" fill="#04A2D1"></path>
                <path d="M154.227,7.905 C153.776,8.073 152.893,8.304 151.948,8.304 C150.751,8.304 149.848,7.999 149.175,7.359 C148.545,6.76 148.177,5.826 148.188,4.755 C148.188,2.517 149.784,1.079 152.126,1.079 C152.998,1.079 153.681,1.258 154.006,1.415 L153.722,2.455 C153.333,2.287 152.861,2.15 152.115,2.15 C150.602,2.15 149.542,3.043 149.542,4.692 C149.542,6.299 150.529,7.254 151.999,7.254 C152.462,7.254 152.808,7.192 152.976,7.107 L152.976,5.342 L151.726,5.342 L151.726,4.324 L154.225,4.324 L154.225,7.905 L154.227,7.905 Z" id="Shape" fill="#04A2D1"></path>
                <path d="M155.521,6.823 C155.941,7.065 156.572,7.275 157.233,7.275 C158.062,7.275 158.525,6.886 158.525,6.309 C158.525,5.773 158.168,5.458 157.264,5.132 C156.099,4.712 155.352,4.092 155.352,3.074 C155.352,1.919 156.319,1.037 157.852,1.037 C158.619,1.037 159.186,1.205 159.553,1.394 L159.238,2.434 C158.986,2.297 158.492,2.098 157.83,2.098 C157.011,2.098 156.654,2.539 156.654,2.949 C156.654,3.495 157.064,3.747 158.009,4.115 C159.237,4.577 159.836,5.196 159.836,6.215 C159.836,7.349 158.975,8.337 157.147,8.337 C156.401,8.337 155.624,8.127 155.235,7.895 L155.521,6.823 L155.521,6.823 Z" id="Shape" fill="#04A2D1"></path>
            </g>
        </g>
    </g>
</svg>
