<svg xmlns="http://www.w3.org/2000/svg" viewBox="0 0 198.98 52.51"><defs><style>.cls-1{fill:#da3230;}</style></defs><title>Element 1</title><g id="Ebene_2" data-name="Ebene 2"><g id="Ebene_1-2" data-name="Ebene 1"><path d="M51.52,26.64V35.8c0,4,2.18,5.49,4.79,5.49a4.47,4.47,0,0,0,4.56-4.8.64.64,0,0,1,.73-.73h1a.73.73,0,0,1,.81.83,6.77,6.77,0,0,1-7.15,7.08C52.12,43.67,49,41.12,49,36V26.46c0-5.14,3.14-7.69,7.33-7.69a6.77,6.77,0,0,1,7.15,7.09.73.73,0,0,1-.81.82h-1a.64.64,0,0,1-.73-.73,4.47,4.47,0,0,0-4.56-4.8C53.7,21.15,51.52,22.66,51.52,26.64ZM83.83,36c0,5.18-3.14,7.68-7.37,7.68s-7.33-2.5-7.33-7.68V26.46c0-5.14,3.14-7.69,7.33-7.69s7.37,2.55,7.37,7.69Zm-2.58-9.35c0-4-2.14-5.49-4.79-5.49s-4.8,1.51-4.8,5.49V35.8c0,4,2.19,5.49,4.8,5.49s4.79-1.51,4.79-5.49Zm33.63-1.15V42.34c0,.59-.24.82-.82.82h-.91c-.58,0-.81-.23-.81-.82V26c0-3.51-1.86-4.84-4.2-4.84s-4.25,1.33-4.25,4.84V42.34c0,.58-.27.82-.81.82h-1c-.54,0-.81-.24-.81-.82V26c0-3.51-1.87-4.84-4.25-4.84s-4.2,1.33-4.2,4.84V42.34c0,.59-.24.82-.77.82h-1c-.53,0-.81-.24-.81-.82V25.49c0-4.49,2.78-6.72,6.47-6.72a5.6,5.6,0,0,1,5.61,3.66h.35a5.66,5.66,0,0,1,5.66-3.66C112.14,18.77,114.88,21,114.88,25.49Zm13.63-14.82a15.6,15.6,0,0,1,2.16.18.73.73,0,0,1,.71.82v.79a1,1,0,0,1-.19.63.54.54,0,0,1-.22.13.7.7,0,0,1-.33,0,12.38,12.38,0,0,0-1.72-.18c-2.82,0-4.24.94-4.24,4.2v1.84l.19.19h5.74c.53,0,.77.23.77.82v.74c0,.59-.24.82-.77.82h-5.74l-.19.19V42.34c0,.59-.24.82-.82.82H123c-.58,0-.81-.23-.81-.82V17C122.14,12.26,124.49,10.67,128.51,10.67ZM150.16,36c0,5.18-3.15,7.68-7.38,7.68s-7.33-2.5-7.33-7.68V26.46c0-5.14,3.14-7.69,7.33-7.69s7.38,2.55,7.38,7.69Zm-2.59-9.35c0-4-2.13-5.49-4.79-5.49S138,22.66,138,26.64V35.8c0,4,2.18,5.49,4.79,5.49s4.79-1.51,4.79-5.49Zm15.91-5.21c-2.77,0-4.3.94-4.3,4.2V42.34c0,.59-.24.82-.76.82h-1c-.54,0-.81-.24-.81-.82v-17c0-4.71,2.39-6.3,6.42-6.3a15,15,0,0,1,2.11.18c.48.08.75.3.75.82v.79c0,.55-.29.85-.79.78A10.29,10.29,0,0,0,163.48,21.43Zm15.14,21.73a14.21,14.21,0,0,1-2.06.19c-3.79,0-6-1.5-6-5.94V14.16c0-.58.23-.82.81-.82h.91c.58,0,.82.24.82.82v4.93l.19.19h5.28c.53,0,.77.23.77.82v.74c0,.59-.24.82-.77.82h-5.28l-.19.19V37.18c0,2.89,1.28,3.79,3.79,3.79a11,11,0,0,0,1.71-.19.73.73,0,0,1,.34,0,.38.38,0,0,1,.21.13.88.88,0,0,1,.19.63v.78A.72.72,0,0,1,178.62,43.16Zm17.55-6.48a.65.65,0,0,1,.72-.73h1.05a.73.73,0,0,1,.81.82c0,4.21-3,6.9-7.15,6.9s-7.33-2.55-7.33-7.68V26.46c0-5.14,3.14-7.69,7.33-7.69S199,21.32,199,26.46v4.37a.71.71,0,0,1-.82.82H187l-.19.19v4c0,4,2.18,5.49,4.79,5.49A4.35,4.35,0,0,0,196.17,36.68Zm-9.36-10v2.44l.19.19h9.2l.19-.19V26.64c0-4-2.13-5.49-4.79-5.49S186.81,22.66,186.81,26.64Z"/><path class="cls-1" d="M6.14,43.54A6.08,6.08,0,0,1,1.8,41.71a6.34,6.34,0,0,1,0-8.85,6.05,6.05,0,0,1,8.69,0,6.34,6.34,0,0,1,0,8.85,6.12,6.12,0,0,1-4.35,1.83"/><polyline class="cls-1" points="0.73 0 27.91 0 14.47 29.47"/><path class="cls-1" d="M35.28,1.88a6,6,0,0,1,8.65.05,6.34,6.34,0,0,1,1,7.35l-.27.58h0l-4.58,9.9L34.38,32.16l-9.3,20.35L18.32,37.73l0,0,0-.05L33.87,4.08c.05-.14.11-.27.17-.41a6.25,6.25,0,0,1,1.24-1.79"/></g></g></svg>