<?xml version="1.0" encoding="utf-8"?>
<!-- Generator: Adobe Illustrator 15.1.0, SVG Export Plug-In . SVG Version: 6.00 Build 0)  -->
<!DOCTYPE svg PUBLIC "-//W3C//DTD SVG 1.1//EN" "http://www.w3.org/Graphics/SVG/1.1/DTD/svg11.dtd">
<svg version="1.1"
	 id="Layer_1" xmlns:inkscape="http://www.inkscape.org/namespaces/inkscape" xmlns:svg="http://www.w3.org/2000/svg" xmlns:rdf="http://www.w3.org/1999/02/22-rdf-syntax-ns#" xmlns:dc="http://purl.org/dc/elements/1.1/" xmlns:cc="http://creativecommons.org/ns#"
	 xmlns="http://www.w3.org/2000/svg" xmlns:xlink="http://www.w3.org/1999/xlink" x="0px" y="0px" width="315.9px" height="72.6px"
	 viewBox="0 0 315.9 72.6" enable-background="new 0 0 315.9 72.6" xml:space="preserve">
<g transform="matrix(1.25,0,0,-1.25,0,72.625)">
	<g>
		<path inkscape:connector-curvature="0" d="M36.5,9.8c-2.3,0.2-3.4,3.9-3.3,8.6c0.2,4.7,1.1,9.1,3.4,9.5l0.9,0.1
			c0.5-5.5,2.3-9.5,5.3-9.8l12,0.1c-0.6-5.2-2.5-8.2-4.6-8.4L36.5,9.8"/>
		<path inkscape:connector-curvature="0" d="M22.2,26.3c-1.5,0.1-2.2,2.5-2.1,5.5c0.1,3.1,0.7,5.9,2.2,6.1l9.4,1.4
			c0.1,0,0.2,0.1,0.4,0.1c1.3,0,2.2-2.8,2.1-6.5c-0.2-4-1.6-6.3-3-6.5l-8.9-0.1"/>
		<path inkscape:connector-curvature="0" d="M12.1,39.1c-1,0.1-1.5,1.8-1.5,3.9c0.1,2.1,0.5,4.1,1.5,4.3l6.6,0.9c0.1,0,0.2,0,0.2,0
			c0.9,0,1.6-1.9,1.4-4.5c-0.1-2.8-1.1-4.4-2.1-4.5H12"/>
		<path inkscape:connector-curvature="0" d="M43.5,20.7c-2.5,0.2-3.8,4.4-3.6,9.5c0.2,5.2,1.2,10.1,3.8,10.5L59.9,43
			c0.2,0.1,0.4,0.1,0.6,0.1c2.3,0,3.8-4.8,3.5-11.2C63.7,25,61.3,21,58.8,20.8l-15.2-0.1"/>
		<path inkscape:connector-curvature="0" d="M104.5,28.6l-4.8-8.8h-5.6l6.5,11.3l-5.9,10.4h5.9l3.9-8l3.9,8h5.9l-5.9-10.4l6.5-11.3
			h-5.6L104.5,28.6"/>
		<path inkscape:connector-curvature="0" d="M124.7,26.7c0-0.4,0-0.8,0-1.2s0.1-0.7,0.3-1c0.2-0.3,0.5-0.5,0.9-0.6
			c0.4-0.2,1-0.2,1.7-0.2h3.1l0.4-0.4v-1.1c0-0.9-0.2-1.5-0.8-1.8c-0.5-0.4-1.4-0.5-2.7-0.5h-1.3c-1.3,0-2.4,0.1-3.3,0.4
			c-0.9,0.3-1.6,0.6-2.1,1.1c-0.6,0.5-0.9,1.1-1.2,1.8c-0.2,0.7-0.4,1.5-0.4,2.3v12.2h-3v3.5l3,0.2l1.3,5.9h3.9v-5.6h6.1v-3.9h-6.1
			V26.9"/>
		<path inkscape:connector-curvature="0" d="M145.3,37.8h-5.2v-18h-5.2v21.5c1.7,0.1,3.1,0.2,4.1,0.3s1.9,0.1,2.5,0.1
			c0.7,0,1.3,0,1.8,0c0.6,0,1.2,0,2,0V37.8"/>
		<path inkscape:connector-curvature="0" d="M161.3,23.4V29h-6c-0.6,0-1.1-0.1-1.4-0.2c-0.4-0.1-0.6-0.3-0.8-0.5
			c-0.2-0.2-0.3-0.5-0.4-0.7c0-0.3-0.1-0.6-0.1-0.9v-1c0-0.3,0-0.6,0.1-0.9c0-0.3,0.2-0.5,0.4-0.8c0.2-0.2,0.5-0.4,0.8-0.5
			c0.4-0.1,0.8-0.2,1.4-0.2h6V23.4z M149.6,37.5l-0.4,0.4V39c0,0.9,0.2,1.5,0.8,1.8c0.5,0.4,1.4,0.5,2.7,0.5h6.5
			c1.3,0,2.4-0.2,3.3-0.5c0.9-0.3,1.7-0.7,2.3-1.3c0.6-0.5,1.1-1.2,1.3-1.9c0.3-0.7,0.4-1.5,0.4-2.4V19.7c-1.7-0.1-3.2-0.2-4.4-0.3
			c-1.2-0.1-2.2-0.1-3.2-0.1c-0.9,0-1.7,0-2.4,0s-1.4,0-2.2,0c-1.3,0-2.4,0.1-3.3,0.4c-0.9,0.3-1.6,0.6-2.1,1.1
			c-0.6,0.5-0.9,1.1-1.2,1.8c-0.2,0.7-0.4,1.5-0.4,2.3v2.8c0,0.8,0.1,1.6,0.4,2.3c0.2,0.7,0.6,1.3,1.2,1.8c0.6,0.5,1.3,0.8,2.1,1.1
			c0.9,0.3,2,0.4,3.3,0.4c0.7,0,1.2,0,1.5,0c0.4,0,0.8,0,1.2,0c0.4,0,0.9-0.1,1.5-0.1c0.6-0.1,1.5-0.2,2.7-0.3v0.9
			c0,0.5,0,1-0.1,1.4c-0.1,0.5-0.2,0.8-0.5,1.2c-0.3,0.3-0.6,0.6-1.1,0.8c-0.5,0.2-1.1,0.3-2,0.3h-8"/>
		<path inkscape:connector-curvature="0" d="M186.9,19.7v11.8h-10.4V19.7h-5.4v26.9h5.4V35.7h10.4v10.9h5.4V19.7H186.9"/>
		<path inkscape:connector-curvature="0" d="M207.4,23.6c1.3,0,2.2,0.2,2.7,0.6s0.7,1.1,0.7,2v8.7c0,0.9-0.2,1.6-0.7,2
			c-0.5,0.4-1.4,0.6-2.7,0.6h-1.8c-1.3,0-2.2-0.2-2.7-0.6c-0.5-0.4-0.7-1.1-0.7-2v-8.7c0-0.9,0.2-1.6,0.7-2s1.4-0.6,2.7-0.6H207.4z
			 M203.9,19.7c-1.3,0-2.4,0.1-3.3,0.4c-0.9,0.3-1.6,0.6-2.1,1.1c-0.6,0.5-0.9,1.1-1.2,1.8c-0.2,0.7-0.4,1.5-0.4,2.3v10.6
			c0,0.8,0.1,1.6,0.4,2.3c0.2,0.7,0.6,1.3,1.2,1.8c0.6,0.5,1.3,0.8,2.1,1.1c0.9,0.3,2,0.4,3.3,0.4h5.2c1.3,0,2.4-0.1,3.3-0.4
			c0.9-0.3,1.6-0.6,2.1-1.1c0.6-0.5,0.9-1.1,1.2-1.8c0.2-0.7,0.4-1.5,0.4-2.3V25.3c0-0.8-0.1-1.6-0.4-2.3c-0.2-0.7-0.6-1.3-1.2-1.8
			c-0.6-0.5-1.3-0.9-2.1-1.1c-0.9-0.3-2-0.4-3.3-0.4H203.9"/>
		<path inkscape:connector-curvature="0" d="M234.5,26.4v8.5c0,0.4,0,0.8,0,1.1c0,0.4-0.1,0.6-0.3,0.9c-0.2,0.2-0.4,0.4-0.8,0.6
			c-0.4,0.1-0.9,0.2-1.6,0.2h-6V23.4h5.7c0.8,0,1.3,0.1,1.7,0.2c0.4,0.1,0.7,0.4,0.9,0.6c0.2,0.3,0.3,0.6,0.3,1S234.5,26,234.5,26.4
			z M232.8,19.5c-0.3,0-0.7,0-1.1,0c-0.4,0-0.9,0-1.4,0s-1.2,0.1-1.9,0.1c-0.7,0.1-1.6,0.2-2.6,0.3V11h-5.2v30.2
			c1.7,0.1,3.2,0.2,4.4,0.3s2.2,0.1,3.2,0.1c0.9,0,1.7,0,2.4,0s1.5,0,2.2,0c1.3,0,2.4-0.1,3.3-0.4c0.9-0.3,1.6-0.6,2.1-1.1
			c0.6-0.5,0.9-1.1,1.2-1.8c0.2-0.7,0.4-1.5,0.4-2.3V25c0-0.8-0.1-1.6-0.4-2.3c-0.2-0.7-0.6-1.3-1.2-1.8c-0.6-0.5-1.3-0.8-2.1-1.1
			c-0.9-0.3-2-0.4-3.3-0.4"/>
		<path inkscape:connector-curvature="0" d="M78.8,41.7c0.5,0.6,1.6,0.8,3.1,0.8H93l0.4,0.4v1.3c0,0.9-0.2,1.5-0.8,1.8
			c-0.5,0.4-1.4,0.5-2.7,0.6H79.5c-1.3,0-2.4-0.1-3.3-0.4c-0.9-0.3-1.6-0.6-2.1-1.1c-0.6-0.5-0.9-1.1-1.2-1.8
			c-0.2-0.7-0.4-1.5-0.4-2.3v-3.4c0-0.1,0-0.3,0-0.4v-7.4c0-0.2,0-0.3,0-0.5v-4.1c0-0.8,0.1-1.6,0.4-2.3c0.2-0.7,0.6-1.3,1.2-1.8
			s1.3-0.9,2.1-1.1c0.9-0.3,2-0.4,3.3-0.4h10.4c1.3,0,2.2,0.2,2.7,0.5c0.5,0.4,0.8,1,0.8,1.9v1.3L93,23.7H81.9
			c-1.5,0-2.5,0.3-3.1,0.9c-0.5,0.6-0.8,1.3-0.8,2.2v1.7c0,0.8,0.2,1.6,0.7,2.1c0.5,0.6,1.4,0.9,2.7,0.9h7.2v3.9h-7.2
			c-1.3,0-2.2,0.3-2.7,0.9c-0.5,0.6-0.7,1.3-0.7,2.1v1c0,0.9,0.3,1.6,0.8,2.2"/>
	</g>
</g>
</svg>
