<svg id="svg" xmlns="http://www.w3.org/2000/svg" xmlns:xlink="http://www.w3.org/1999/xlink" width="400" height="400" viewBox="0, 0, 400,400">
  <g id="svgg">
    <path id="path0" fill="#0c2484" fill-rule="evenodd" d="M187.319 5.785 C 161.107 7.679,136.652 14.250,113.804 25.536 C 108.687 28.064,100.697 32.444,100.016 33.095 C 99.833 33.270,139.879 33.387,200.007 33.387 C 284.030 33.387,300.201 33.317,299.670 32.956 C 293.336 28.645,276.276 20.633,264.716 16.540 C 240.757 8.057,211.717 4.022,187.319 5.785 M71.630 53.797 C 58.553 65.209,45.001 80.915,36.376 94.654 L 34.671 97.369 34.671 199.969 L 34.671 302.568 37.112 306.260 C 38.455 308.291,40.658 311.503,42.008 313.399 L 44.462 316.846 60.273 316.850 L 76.083 316.854 76.083 183.467 C 76.083 110.104,76.040 50.080,75.986 50.080 C 75.932 50.080,73.972 51.753,71.630 53.797 M124.559 157.785 L 124.559 229.856 143.820 229.856 L 163.082 229.856 163.082 157.785 L 163.082 85.714 143.820 85.714 L 124.559 85.714 124.559 157.785 M168.539 104.976 L 168.539 124.238 240.770 124.238 L 313.002 124.238 313.002 104.976 L 313.002 85.714 240.770 85.714 L 168.539 85.714 168.539 104.976 M365.329 199.832 C 365.329 261.367,365.445 301.773,365.622 301.589 C 366.801 300.361,373.949 287.056,376.736 280.899 C 401.315 226.610,400.206 165.681,373.675 112.681 C 371.226 107.789,367.092 100.326,365.766 98.404 C 365.397 97.869,365.329 113.656,365.329 199.832 M274.478 245.425 L 274.478 316.854 293.740 316.854 L 313.002 316.854 313.002 245.425 L 313.002 173.997 293.740 173.997 L 274.478 173.997 274.478 245.425 M81.677 235.605 C 81.602 235.680,81.541 244.385,81.541 254.949 L 81.541 274.157 153.130 274.157 L 224.719 274.157 224.719 254.769 L 224.719 235.380 153.267 235.424 C 113.968 235.448,81.753 235.529,81.677 235.605 M105.618 370.021 C 142.642 391.333,191.094 399.247,235.152 391.178 C 254.708 387.596,284.202 376.945,294.855 369.617 C 295.389 369.250,280.468 369.182,199.831 369.185 L 104.173 369.189 105.618 370.021 "></path>
    <path id="path1" fill="#fafbfb" fill-rule="evenodd" d="M187.480 0.222 C 154.351 2.159,121.055 12.948,92.777 30.911 C 90.570 32.313,86.453 34.630,83.628 36.061 C 78.602 38.606,78.517 38.666,79.705 38.834 L 80.918 39.005 78.582 40.770 C 63.799 51.942,48.227 67.970,37.412 83.146 C 36.217 84.823,35.054 86.345,34.829 86.527 C 34.247 86.997,26.548 99.806,23.745 104.967 C -8.523 164.380,-7.939 238.615,25.260 297.557 C 28.123 302.640,34.300 312.694,34.848 313.162 C 35.459 313.684,37.398 316.671,37.309 316.953 C 37.264 317.095,38.133 318.260,39.239 319.540 C 40.346 320.821,43.007 324.027,45.152 326.665 C 103.121 397.959,203.740 420.204,286.881 380.108 C 294.871 376.254,314.512 364.858,314.982 363.802 C 315.040 363.671,317.327 361.880,320.064 359.821 C 404.749 296.137,425.236 176.713,366.509 89.085 C 364.926 86.723,364.486 85.847,364.843 85.771 C 365.625 85.604,365.425 85.254,363.729 83.824 C 362.849 83.082,361.663 81.795,361.093 80.965 C 360.523 80.134,359.812 79.238,359.514 78.973 C 359.216 78.708,357.705 76.902,356.156 74.960 C 347.084 63.579,336.365 52.878,324.719 43.573 C 322.071 41.457,319.470 39.369,318.941 38.931 C 317.593 37.819,310.373 32.987,305.778 30.121 C 270.709 8.252,229.271 -2.221,187.480 0.222 M218.941 6.234 C 247.905 9.439,271.999 17.135,296.308 30.946 L 300.321 33.226 250.187 33.308 C 222.613 33.352,177.421 33.352,149.761 33.308 L 99.471 33.226 102.437 31.496 C 127.689 16.767,157.958 7.590,187.640 5.665 C 192.609 5.342,214.476 5.740,218.941 6.234 M313.253 41.856 C 327.889 52.394,343.330 67.191,352.905 79.856 C 353.148 80.176,325.990 80.257,217.375 80.257 L 81.541 80.257 81.541 62.936 L 81.541 45.616 82.745 44.652 C 83.407 44.122,85.465 42.603,87.319 41.278 L 90.690 38.867 199.880 38.856 L 309.070 38.844 313.253 41.856 M76.302 205.377 L 76.244 316.854 60.328 316.854 L 44.413 316.854 42.152 313.724 C 40.909 312.002,38.717 308.830,37.281 306.675 L 34.671 302.756 34.671 199.903 L 34.671 97.050 37.640 92.581 C 47.429 77.851,59.962 63.649,73.194 52.295 L 75.923 49.953 76.142 71.927 C 76.262 84.012,76.334 144.065,76.302 205.377 M119.101 157.785 L 119.101 229.856 100.321 229.856 L 81.541 229.856 81.541 157.785 L 81.541 85.714 100.321 85.714 L 119.101 85.714 119.101 157.785 M163.082 157.948 L 163.082 230.182 143.740 230.099 L 124.398 230.016 124.317 157.865 L 124.236 85.714 143.659 85.714 L 163.082 85.714 163.082 157.948 M313.002 104.976 L 313.002 124.238 240.770 124.238 L 168.539 124.238 168.539 104.976 L 168.539 85.714 240.770 85.714 L 313.002 85.714 313.002 104.976 M358.668 87.473 L 359.872 89.207 359.872 199.957 L 359.872 310.706 355.583 316.429 C 345.641 329.695,332.760 342.946,320.435 352.590 L 318.459 354.136 318.459 219.925 L 318.459 85.714 337.961 85.726 L 357.464 85.739 358.668 87.473 M370.186 105.833 C 398.594 156.749,402.250 219.563,379.953 273.676 C 376.605 281.800,368.623 297.515,365.772 301.596 C 365.395 302.135,365.329 286.924,365.330 199.831 L 365.331 97.432 366.452 99.292 C 367.069 100.315,368.749 103.259,370.186 105.833 M29.134 246.282 L 29.053 292.937 26.081 287.076 C -1.604 232.486,-1.469 166.717,26.439 111.878 L 29.053 106.742 29.134 153.184 C 29.179 178.728,29.179 220.622,29.134 246.282 M313.002 149.117 L 313.002 168.539 240.770 168.539 L 168.539 168.539 168.539 149.117 L 168.539 129.695 240.770 129.695 L 313.002 129.695 313.002 149.117 M224.719 201.926 L 224.719 229.856 196.629 229.856 L 168.539 229.856 168.539 201.926 L 168.539 173.997 196.629 173.997 L 224.719 173.997 224.719 201.926 M268.700 245.425 L 268.700 316.854 249.438 316.854 L 230.177 316.854 230.177 245.425 L 230.177 173.997 249.438 173.997 L 268.700 173.997 268.700 245.425 M313.002 245.425 L 313.002 316.854 293.579 316.854 L 274.157 316.854 274.157 245.425 L 274.157 173.997 293.579 173.997 L 313.002 173.997 313.002 245.425 M224.719 254.735 L 224.719 274.157 153.130 274.157 L 81.541 274.157 81.541 254.735 L 81.541 235.313 153.130 235.313 L 224.719 235.313 224.719 254.735 M224.719 298.234 L 224.719 316.854 153.130 316.854 L 81.541 316.854 81.541 298.234 L 81.541 279.615 153.130 279.615 L 224.719 279.615 224.719 298.234 M313.002 340.267 L 313.002 358.223 308.909 360.975 L 304.815 363.727 199.909 363.726 L 95.003 363.724 91.562 361.425 C 76.660 351.468,62.279 338.491,50.265 324.157 L 48.718 322.311 180.860 322.311 L 313.002 322.311 313.002 340.267 M294.061 370.178 C 237.824 401.536,168.152 402.541,110.767 372.823 C 107.860 371.317,105.192 369.882,104.837 369.634 C 104.281 369.244,117.509 369.182,200.009 369.187 L 295.827 369.193 294.061 370.178 "></path>
    <path id="path2" fill="#049ce4" fill-rule="evenodd" d="M87.319 41.278 C 85.465 42.603,83.407 44.122,82.745 44.652 L 81.541 45.616 81.541 62.936 L 81.541 80.257 217.375 80.257 C 325.990 80.257,353.148 80.176,352.905 79.856 C 343.330 67.191,327.889 52.394,313.253 41.856 L 309.070 38.844 199.880 38.856 L 90.690 38.867 87.319 41.278 M76.241 157.785 C 76.241 197.512,76.279 213.716,76.324 193.795 C 76.370 173.873,76.370 141.369,76.324 121.563 C 76.279 101.758,76.241 118.058,76.241 157.785 M81.541 157.785 L 81.541 229.856 100.321 229.856 L 119.101 229.856 119.101 157.785 L 119.101 85.714 100.321 85.714 L 81.541 85.714 81.541 157.785 M124.397 157.945 L 124.398 230.016 143.660 230.020 L 162.921 230.024 143.741 229.937 L 124.560 229.851 124.478 157.863 L 124.396 85.875 124.397 157.945 M318.459 219.925 L 318.459 354.136 320.435 352.590 C 332.760 342.946,345.641 329.695,355.583 316.429 L 359.872 310.706 359.872 199.957 L 359.872 89.207 358.668 87.473 L 357.464 85.739 337.961 85.726 L 318.459 85.714 318.459 219.925 M26.439 111.878 C -1.469 166.717,-1.604 232.486,26.081 287.076 L 29.053 292.937 29.134 246.282 C 29.179 220.622,29.179 178.728,29.134 153.184 L 29.053 106.742 26.439 111.878 M168.539 149.117 L 168.539 168.539 240.770 168.539 L 313.002 168.539 313.002 149.117 L 313.002 129.695 240.770 129.695 L 168.539 129.695 168.539 149.117 M230.177 245.425 L 230.177 316.854 249.438 316.854 L 268.700 316.854 268.700 245.425 L 268.700 173.997 249.438 173.997 L 230.177 173.997 230.177 245.425 M274.315 245.425 C 274.315 284.799,274.352 300.955,274.398 281.326 C 274.444 261.697,274.444 229.482,274.398 209.737 C 274.352 189.991,274.315 206.051,274.315 245.425 M394.296 193.579 C 394.296 194.197,394.362 194.450,394.443 194.141 C 394.524 193.832,394.524 193.327,394.443 193.018 C 394.362 192.709,394.296 192.961,394.296 193.579 M131.380 235.554 C 138.222 235.602,149.418 235.602,156.260 235.554 C 163.102 235.505,157.504 235.466,143.820 235.466 C 130.136 235.466,124.539 235.505,131.380 235.554 M76.234 298.234 C 76.234 308.563,76.274 312.789,76.324 307.624 C 76.374 302.460,76.374 294.009,76.324 288.844 C 76.274 283.680,76.234 287.905,76.234 298.234 M81.541 298.234 L 81.541 316.854 153.130 316.854 L 224.719 316.854 224.719 298.234 L 224.719 279.615 153.130 279.615 L 81.541 279.615 81.541 298.234 M50.265 324.157 C 62.279 338.491,76.660 351.468,91.562 361.425 L 95.003 363.724 199.909 363.726 L 304.815 363.727 308.909 360.975 L 313.002 358.223 313.002 340.267 L 313.002 322.311 180.860 322.311 L 48.718 322.311 50.265 324.157 "></path>
  </g>
</svg>