<?xml version="1.0" encoding="utf-8"?>
<!-- Generator: Adobe Illustrator 27.8.1, SVG Export Plug-In . SVG Version: 6.00 Build 0)  -->
<svg version="1.1" id="Layer_1" xmlns="http://www.w3.org/2000/svg" xmlns:xlink="http://www.w3.org/1999/xlink" x="0px" y="0px"
	 viewBox="0 0 2000 500" style="enable-background:new 0 0 2000 500;" xml:space="preserve">
<style type="text/css">
	.st0{fill:#FA6624;}
	.st1{fill:#64686A;}
</style>
<g id="Combination_Mark">
	<g id="Logotype">
		<path class="st0" d="M692.4,139.7h-79.7V78.4h79.7V139.7L692.4,139.7z M612.7,170.3h79.7V413h-79.7V170.3L612.7,170.3z"/>
		<path class="st0" d="M729.2,78.4h79.7V413h-79.7V78.4z"/>
		<path class="st0" d="M844.4,78.4H924V413h-79.7V78.4z"/>
		<path class="st0" d="M1198.5,414.2h-77.2v-33.1h-1.2c-15.9,24.5-44.1,40.4-73.5,40.4c-69.9,0-89.5-40.4-89.5-104.2V170.3h79.7
			v140.9c0,31.9,13.5,44.1,39.2,44.1c17.2,0,44.1-11,44.1-53.9V170.3h79.7L1198.5,414.2L1198.5,414.2z"/>
		<path class="st0" d="M1227.9,170.3h77.2v33.1h1.2c14.7-24.5,41.7-40.4,69.9-40.4c30.6,0,57.6,9.8,71.1,39.2
			c17.2-25.7,45.3-40.4,76-39.2c77.2,0,85.8,58.8,85.8,105.4v145.8h-79.7V270.8c0-25.7-12.3-41.7-33.1-41.7
			c-34.3,0-36.8,25.7-36.8,66.2v118.9h-79.7V275.7c0-28.2-8.6-46.6-29.4-46.6c-28.2,0-40.4,15.9-40.4,66.2v118.9h-79.7L1227.9,170.3
			L1227.9,170.3z"/>
		<path class="st0" d="M1721.8,139.7h-79.7V78.4h79.7V139.7z M1642.2,170.3h79.7V413h-79.7V170.3z"/>
		<path class="st0" d="M1870.1,163c71.1,0,128.7,56.4,129.9,127.5c0,71.1-56.4,128.7-127.5,129.9c-71.1,0-128.7-56.4-129.9-127.5
			c0,0,0,0,0-1.2c-2.5-68.6,51.5-126.2,120.1-128.7C1865.2,163,1867.6,163,1870.1,163z M1870.1,359.1c36.8,0,49-36.8,49-67.4
			s-12.3-67.4-49-67.4c-36.8,0-47.8,36.8-47.8,67.4S1833.3,359.1,1870.1,359.1L1870.1,359.1z"/>
	</g>
	<g id="Glyph">
		<path class="st1" d="M186.9,500H32c-17.6,0-32-14.4-32-32V236.5h51.5v212h135.4V500z M51.5,51.5h77.8V0H32C14.4,0,0,14.4,0,32
			v135.9h51.5V51.5z M448.5,448.5h-69.8V500H468c17.6,0,32-14.4,32-32v-89.3h-51.5V448.5z M468,0H197.9v51.5h250.6V310H500V32
			C500,14.4,485.6,0,468,0z"/>
		<path class="st0" d="M284.9,219l30-30h64.1c6.3,0,11.4-5.1,11.4-11.4v-66.2c0-6.3-5.1-11.4-11.4-11.4h-66.2
			c-6.3,0-11.4,5.1-11.4,11.4v64.1l-30,30h-62l-42.9-42.9v-36c0-4-3.3-7.3-7.3-7.3h-42.2c-4,0-7.3,3.3-7.3,7.3v42.2
			c0,4,3.3,7.3,7.3,7.3h35.8l43,43v62l-43.2,43.2h-35.6c-4,0-7.3,3.3-7.3,7.3v42.2c0,4,3.3,7.3,7.3,7.3h42.2c4,0,7.3-3.3,7.3-7.3
			v-36.2l42.9-42.9h61.9l30,30v64.1c0,6.3,5.1,11.4,11.4,11.4h66.2c6.3,0,11.4-5.1,11.4-11.4v-66.2c0-6.3-5.1-11.4-11.4-11.4h-64.1
			L284.9,281V219z"/>
	</g>
</g>
</svg>
