<svg id="svg" version="1.1" xmlns="http://www.w3.org/2000/svg" xmlns:xlink="http://www.w3.org/1999/xlink" width="400" height="105.75005304476979" viewBox="0, 0, 400,105.75005304476979"><g id="svgg"><path id="path0" d="M47.333 0.180 C 39.340 1.053,31.736 3.656,25.000 7.827 C 24.221 8.309,22.983 9.004,22.250 9.371 C 20.679 10.158,20.696 10.145,20.986 10.324 C 21.163 10.434,21.137 10.504,20.866 10.649 C 20.476 10.858,18.451 12.583,16.364 14.482 C 14.782 15.923,11.498 19.638,10.160 21.500 C 9.667 22.188,9.217 22.787,9.162 22.833 C 9.008 22.962,6.635 26.928,5.872 28.333 C -0.504 40.075,-1.814 56.370,2.576 69.315 C 4.300 74.399,6.115 78.140,8.806 82.161 C 9.325 82.937,9.787 83.662,9.833 83.771 C 9.989 84.142,14.076 88.897,15.255 90.077 C 18.204 93.031,22.494 96.395,25.276 97.937 C 25.720 98.183,26.121 98.439,26.167 98.506 C 26.823 99.471,36.235 103.266,40.428 104.257 C 53.439 107.331,69.417 105.009,79.417 98.590 C 79.875 98.296,80.845 97.691,81.573 97.246 C 82.711 96.550,86.047 94.127,86.601 93.594 C 86.703 93.497,87.670 92.629,88.751 91.667 C 107.639 74.849,111.288 44.555,96.959 23.530 C 96.689 23.134,96.512 22.766,96.565 22.713 C 96.618 22.659,96.359 22.271,95.989 21.850 C 95.618 21.428,95.222 20.971,95.108 20.833 C 90.432 15.173,86.291 11.340,81.833 8.545 C 80.871 7.942,79.821 7.282,79.500 7.079 C 71.377 1.944,57.816 -0.965,47.333 0.180 M55.500 1.501 C 63.223 1.962,69.647 3.690,76.359 7.111 C 77.702 7.796,78.940 8.461,79.109 8.590 C 79.373 8.790,75.648 8.823,52.838 8.828 C 29.621 8.833,26.303 8.803,26.603 8.593 C 28.189 7.482,33.537 5.054,36.667 4.025 C 41.625 2.394,45.489 1.736,52.333 1.359 C 52.563 1.347,53.987 1.410,55.500 1.501 M83.107 11.270 C 86.616 13.781,89.677 16.710,93.142 20.875 C 93.373 21.153,91.655 21.167,57.442 21.167 L 21.500 21.167 21.500 16.611 L 21.500 12.056 22.692 11.195 L 23.883 10.333 52.841 10.333 L 81.798 10.333 83.107 11.270 M20.167 48.417 L 20.167 83.667 15.922 83.667 L 11.678 83.667 10.428 81.875 L 9.179 80.083 9.173 52.869 C 9.167 27.348,9.185 25.627,9.455 25.202 C 12.003 21.205,19.118 13.167,20.108 13.167 C 20.140 13.167,20.167 29.029,20.167 48.417 M31.500 41.667 L 31.500 60.667 26.583 60.667 L 21.667 60.667 21.667 41.667 L 21.667 22.667 26.583 22.667 L 31.500 22.667 31.500 41.667 M43.167 41.750 L 43.167 60.833 38.000 60.833 L 32.833 60.833 32.833 41.750 L 32.833 22.667 38.000 22.667 L 43.167 22.667 43.167 41.750 M82.833 27.750 L 82.833 32.833 63.667 32.833 L 44.500 32.833 44.500 27.750 L 44.500 22.667 63.667 22.667 L 82.833 22.667 82.833 27.750 M94.822 23.151 L 95.167 23.635 95.165 52.859 L 95.163 82.083 93.873 83.774 C 91.135 87.363,87.699 90.846,84.458 93.318 C 84.181 93.530,84.167 91.827,84.167 58.104 L 84.167 22.667 89.322 22.667 L 94.477 22.667 94.822 23.151 M98.482 29.167 C 105.939 43.744,106.241 60.356,99.311 74.827 C 98.237 77.070,96.723 79.833,96.567 79.833 C 96.530 79.833,96.502 67.665,96.504 52.792 C 96.508 21.597,96.241 24.785,98.482 29.167 M7.626 64.945 L 7.583 77.250 6.636 75.305 C -0.303 61.057,-0.303 44.932,6.638 30.261 L 7.583 28.263 7.626 40.452 C 7.650 47.156,7.650 58.178,7.626 64.945 M82.667 39.417 L 82.667 44.500 63.583 44.500 L 44.500 44.500 44.500 39.417 L 44.500 34.333 63.583 34.333 L 82.667 34.333 82.667 39.417 M59.333 53.333 L 59.333 60.667 52.000 60.667 L 44.667 60.667 44.667 53.333 L 44.667 46.000 52.000 46.000 L 59.333 46.000 59.333 53.333 M71.000 64.833 L 71.000 83.667 65.917 83.667 L 60.833 83.667 60.833 64.833 L 60.833 46.000 65.917 46.000 L 71.000 46.000 71.000 64.833 M82.833 64.833 L 82.833 83.667 77.667 83.667 L 72.500 83.667 72.500 64.833 L 72.500 46.000 77.667 46.000 L 82.833 46.000 82.833 64.833 M59.461 67.292 L 59.417 72.417 40.500 72.417 L 21.583 72.417 21.539 67.292 L 21.495 62.167 40.500 62.167 L 59.505 62.167 59.461 67.292 M59.333 78.750 L 59.333 83.667 40.500 83.667 L 21.667 83.667 21.667 78.750 L 21.667 73.833 40.500 73.833 L 59.333 73.833 59.333 78.750 M82.667 89.908 L 82.667 94.650 81.604 95.408 L 80.541 96.167 52.885 96.167 L 25.230 96.167 23.708 95.125 C 20.516 92.940,14.672 87.627,13.350 85.708 L 12.977 85.167 47.822 85.167 L 82.667 85.167 82.667 89.908 M77.167 98.098 C 62.645 106.007,44.574 106.203,29.582 98.614 L 27.417 97.517 52.833 97.512 L 78.250 97.508 77.167 98.098 " stroke="none" fill="#f9fafb" fill-rule="evenodd"></path><path id="path1" d="M52.292 1.454 C 52.590 1.491,53.077 1.491,53.375 1.454 C 53.673 1.417,53.429 1.387,52.833 1.387 C 52.237 1.387,51.994 1.417,52.292 1.454 M22.692 11.195 L 21.500 12.056 21.500 16.611 L 21.500 21.167 57.442 21.167 C 91.655 21.167,93.373 21.153,93.142 20.875 C 89.677 16.710,86.616 13.781,83.107 11.270 L 81.798 10.333 52.841 10.333 L 23.883 10.333 22.692 11.195 M21.667 41.667 L 21.667 60.667 26.583 60.667 L 31.500 60.667 31.500 41.667 L 31.500 22.667 26.583 22.667 L 21.667 22.667 21.667 41.667 M32.874 41.708 L 32.833 60.833 38.042 60.794 L 43.250 60.755 38.126 60.708 L 33.001 60.662 32.958 41.623 L 32.915 22.583 32.874 41.708 M82.741 27.750 C 82.741 30.592,82.763 31.778,82.791 30.385 C 82.819 28.993,82.819 26.668,82.791 25.219 C 82.764 23.769,82.741 24.908,82.741 27.750 M84.167 58.104 C 84.167 91.827,84.181 93.530,84.458 93.318 C 87.699 90.846,91.135 87.363,93.873 83.774 L 95.163 82.083 95.165 52.859 L 95.167 23.635 94.822 23.151 L 94.477 22.667 89.322 22.667 L 84.167 22.667 84.167 58.104 M96.500 52.833 C 96.500 67.714,96.538 79.850,96.585 79.804 C 96.695 79.694,96.692 25.970,96.582 25.860 C 96.537 25.815,96.500 37.953,96.500 52.833 M6.638 30.261 C -0.303 44.932,-0.303 61.057,6.636 75.305 L 7.583 77.250 7.626 64.945 C 7.650 58.178,7.650 47.156,7.626 40.452 L 7.583 28.263 6.638 30.261 M44.500 39.417 L 44.500 44.500 63.583 44.500 L 82.667 44.500 82.667 39.417 L 82.667 34.333 63.583 34.333 L 44.500 34.333 44.500 39.417 M60.833 64.833 L 60.833 83.667 65.917 83.667 L 71.000 83.667 71.000 64.833 L 71.000 46.000 65.917 46.000 L 60.833 46.000 60.833 64.833 M82.747 64.833 C 82.747 75.237,82.767 79.494,82.792 74.292 C 82.816 69.090,82.816 60.577,82.792 55.375 C 82.767 50.173,82.747 54.429,82.747 64.833 M21.580 67.250 L 21.583 72.417 40.500 72.417 L 59.417 72.417 59.420 67.250 L 59.424 62.083 59.376 67.208 L 59.329 72.333 40.500 72.333 L 21.671 72.333 21.624 67.208 L 21.576 62.083 21.580 67.250 M21.667 78.750 L 21.667 83.667 40.500 83.667 L 59.333 83.667 59.333 78.750 L 59.333 73.833 40.500 73.833 L 21.667 73.833 21.667 78.750 M13.350 85.708 C 14.672 87.627,20.516 92.940,23.708 95.125 L 25.230 96.167 52.885 96.167 L 80.541 96.167 81.604 95.408 L 82.667 94.650 82.667 89.908 L 82.667 85.167 47.822 85.167 L 12.977 85.167 13.350 85.708 " stroke="none" fill="#049ce4" fill-rule="evenodd"></path><path id="path2" d="M48.583 1.598 C 48.308 1.636,47.371 1.747,46.500 1.846 C 40.283 2.551,33.188 4.883,27.667 8.036 L 26.417 8.750 39.612 8.793 C 46.869 8.816,58.781 8.816,66.083 8.793 L 79.359 8.750 77.305 7.632 C 72.122 4.812,66.473 2.936,60.255 1.970 C 58.188 1.649,50.099 1.391,48.583 1.598 M18.125 14.960 C 15.211 17.624,12.459 20.807,10.268 24.046 L 9.167 25.675 9.166 52.796 L 9.165 79.917 10.428 81.792 L 11.692 83.667 15.929 83.667 L 20.167 83.667 20.167 48.417 C 20.167 29.029,20.148 13.167,20.125 13.168 C 20.102 13.169,19.202 13.975,18.125 14.960 M33.000 41.667 L 33.000 60.667 38.083 60.667 L 43.167 60.667 43.167 41.667 L 43.167 22.667 38.083 22.667 L 33.000 22.667 33.000 41.667 M44.500 27.750 L 44.500 32.833 63.583 32.833 L 82.667 32.833 82.667 27.750 L 82.667 22.667 63.583 22.667 L 44.500 22.667 44.500 27.750 M199.179 24.772 C 198.840 25.203,198.833 25.373,198.833 33.022 C 198.833 37.318,198.777 40.833,198.708 40.834 C 198.640 40.834,196.708 41.133,194.417 41.499 C 189.748 42.244,189.342 42.417,189.569 43.553 C 189.810 44.761,190.114 44.788,194.875 44.028 L 198.833 43.396 198.833 46.342 C 198.833 49.845,198.953 50.167,200.253 50.167 C 201.442 50.167,201.500 49.983,201.500 46.224 C 201.500 42.640,201.378 42.958,202.833 42.751 C 204.564 42.503,205.000 42.189,205.000 41.190 C 205.000 40.124,203.838 39.783,201.882 40.274 L 201.500 40.369 201.500 32.685 C 201.500 25.222,201.490 24.990,201.167 24.667 C 200.657 24.157,199.619 24.212,199.179 24.772 M210.862 24.719 C 210.524 25.079,210.500 25.269,210.500 27.552 L 210.500 30.000 209.042 30.003 C 207.478 30.005,207.320 30.053,207.025 30.614 C 206.397 31.807,207.151 32.500,209.076 32.500 L 210.500 32.500 210.500 35.242 L 210.500 37.984 209.888 38.153 C 209.552 38.246,208.879 38.411,208.392 38.520 C 207.233 38.779,206.833 39.160,206.833 40.006 C 206.833 41.295,207.724 41.627,209.557 41.022 L 210.500 40.711 210.500 44.272 L 210.500 47.833 209.192 47.833 C 207.428 47.833,206.967 48.308,207.580 49.494 C 207.932 50.174,208.636 50.355,210.250 50.181 C 213.118 49.872,213.069 49.972,213.135 44.328 L 213.186 39.890 214.516 39.506 C 217.215 38.726,217.115 36.167,214.414 36.886 C 213.835 37.041,213.318 37.167,213.264 37.167 C 213.211 37.167,213.167 36.117,213.167 34.833 L 213.167 32.500 214.341 32.500 C 215.581 32.500,216.333 32.087,216.333 31.406 C 216.333 31.224,216.422 31.165,216.597 31.232 C 216.742 31.288,218.092 31.333,219.597 31.333 L 222.333 31.333 222.333 33.000 L 222.333 34.667 219.787 34.667 C 216.983 34.667,216.613 34.774,216.423 35.638 C 216.292 36.236,216.580 37.009,216.973 37.111 C 217.139 37.155,217.372 37.466,217.490 37.803 C 217.862 38.866,219.661 42.033,220.622 43.316 L 221.544 44.548 221.150 44.846 C 220.206 45.558,218.895 46.244,217.137 46.947 C 214.497 48.002,214.180 48.396,215.098 49.487 C 215.961 50.513,218.390 49.789,222.375 47.318 L 223.677 46.510 224.407 47.067 C 226.686 48.807,230.046 50.306,231.015 50.015 C 232.703 49.509,232.664 48.117,230.944 47.487 C 229.487 46.954,227.366 45.880,226.583 45.280 C 226.217 44.999,225.886 44.747,225.849 44.719 C 225.795 44.680,227.291 42.850,227.663 42.500 C 228.324 41.879,230.087 38.683,230.670 37.049 C 231.399 35.007,230.935 34.667,227.425 34.667 L 225.000 34.667 225.000 33.000 L 225.000 31.333 227.971 31.333 C 231.345 31.333,231.670 31.215,231.664 29.989 C 231.659 28.788,231.307 28.667,227.844 28.667 L 225.000 28.667 225.000 26.833 C 225.000 24.716,224.808 24.333,223.742 24.333 C 222.618 24.333,222.333 24.853,222.333 26.909 L 222.333 28.667 219.522 28.667 C 216.462 28.667,215.833 28.846,215.834 29.720 C 215.834 30.068,215.776 30.081,214.500 30.029 L 213.167 29.975 213.167 27.563 C 213.167 25.225,213.154 25.139,212.758 24.742 C 212.216 24.201,211.359 24.191,210.862 24.719 M299.717 24.751 C 299.520 24.888,299.268 25.282,299.157 25.626 C 299.046 25.969,298.810 26.644,298.632 27.125 L 298.309 28.000 294.661 28.000 C 290.603 28.000,290.333 28.075,290.333 29.206 C 290.333 30.343,290.797 30.500,294.163 30.500 L 297.175 30.500 296.897 31.037 C 295.772 33.213,293.080 36.641,291.477 37.939 C 290.010 39.127,289.778 39.823,290.598 40.582 C 291.487 41.407,292.008 41.182,294.208 39.022 L 295.667 37.590 295.667 43.527 C 295.667 50.182,295.649 50.081,296.863 50.275 C 298.085 50.470,298.333 49.946,298.333 47.174 L 298.333 44.833 303.833 44.833 L 309.333 44.833 309.333 46.250 L 309.333 47.667 307.417 47.667 C 304.827 47.667,304.059 48.418,305.340 49.699 L 305.846 50.205 308.048 50.125 C 312.195 49.976,311.917 50.599,311.917 41.462 L 311.917 34.173 311.372 33.628 L 310.827 33.083 304.902 33.036 C 301.643 33.009,299.000 32.930,299.030 32.860 C 299.059 32.790,299.306 32.230,299.579 31.616 L 300.074 30.500 307.181 30.500 C 315.302 30.500,315.167 30.523,315.167 29.164 C 315.167 27.982,315.282 28.000,307.880 28.000 C 304.279 28.000,301.333 27.937,301.333 27.859 C 301.333 27.782,301.478 27.299,301.655 26.785 C 302.252 25.048,301.068 23.804,299.717 24.751 M141.667 24.922 C 139.155 25.264,136.262 25.475,131.333 25.674 C 126.350 25.876,126.333 25.880,126.333 26.850 C 126.333 27.154,126.506 27.449,126.858 27.746 L 127.384 28.187 130.139 28.069 L 132.893 27.950 132.563 28.516 L 132.232 29.083 128.574 29.125 C 124.578 29.171,124.333 29.235,124.333 30.246 C 124.333 31.313,124.779 31.487,127.631 31.537 L 130.245 31.583 128.861 32.626 C 128.100 33.199,126.779 34.001,125.927 34.408 C 124.412 35.130,124.167 35.354,124.167 36.021 C 124.167 37.657,126.555 37.444,129.155 35.576 L 129.957 35.000 130.067 35.970 C 130.307 38.090,130.537 38.167,136.692 38.166 C 142.771 38.166,143.332 37.960,143.333 35.724 L 143.333 35.032 144.676 35.839 C 147.122 37.309,148.489 37.438,149.029 36.252 C 149.403 35.432,149.072 35.026,147.467 34.335 C 145.895 33.659,143.756 32.392,143.259 31.843 L 142.948 31.500 145.545 31.500 L 148.142 31.500 148.488 31.061 C 148.900 30.538,148.928 30.042,148.574 29.537 L 148.314 29.167 141.730 29.167 L 135.145 29.167 135.520 28.500 C 135.726 28.133,136.012 27.833,136.156 27.832 C 138.334 27.824,145.046 26.974,145.428 26.658 C 145.751 26.389,145.730 25.587,145.391 25.248 C 144.763 24.620,144.227 24.573,141.667 24.922 M268.290 24.958 C 268.145 25.119,267.730 25.925,267.365 26.750 C 266.765 28.111,266.333 28.925,265.158 30.917 C 264.942 31.283,264.162 32.322,263.424 33.225 C 261.548 35.523,261.393 35.884,261.855 36.898 C 262.352 37.989,263.408 37.804,264.501 36.434 L 265.250 35.495 265.333 42.594 C 265.427 50.566,265.356 50.167,266.673 50.167 C 267.968 50.167,267.906 50.631,268.000 40.274 L 268.083 31.083 269.223 28.917 C 270.484 26.518,270.739 25.541,270.247 24.996 C 269.856 24.565,268.664 24.541,268.290 24.958 M186.750 25.271 C 185.956 25.566,183.293 26.249,181.372 26.652 C 179.819 26.976,179.611 27.114,179.611 27.819 C 179.611 28.918,180.296 29.208,182.173 28.903 C 182.949 28.776,183.640 28.672,183.708 28.670 C 183.777 28.668,183.833 29.452,183.833 30.412 L 183.833 32.157 181.726 32.203 C 179.308 32.257,178.831 32.517,179.079 33.648 C 179.243 34.392,179.692 34.572,181.615 34.667 L 183.312 34.750 182.683 36.273 C 182.051 37.805,180.699 40.201,179.594 41.749 C 178.893 42.732,178.811 43.548,179.345 44.228 C 180.191 45.303,181.241 44.390,182.953 41.092 L 183.822 39.417 183.828 44.421 C 183.834 50.179,183.831 50.167,185.081 50.167 C 186.500 50.167,186.500 50.165,186.501 43.769 L 186.501 38.250 187.376 39.583 C 188.419 41.174,189.151 41.469,189.710 40.524 C 190.267 39.580,190.127 39.207,188.324 36.854 L 186.649 34.667 188.135 34.667 C 189.967 34.667,190.500 34.369,190.500 33.347 C 190.500 32.332,190.177 32.167,188.195 32.167 L 186.500 32.167 186.500 30.115 L 186.500 28.064 187.672 27.760 C 189.164 27.373,189.667 26.993,189.667 26.250 C 189.667 25.133,188.330 24.684,186.750 25.271 M275.394 25.195 C 274.535 25.611,274.558 27.078,275.429 27.475 C 275.684 27.592,276.813 27.667,278.307 27.667 L 280.765 27.667 281.235 29.125 C 282.081 31.751,284.273 35.440,285.614 36.494 C 287.179 37.725,288.815 35.557,287.353 34.189 C 285.888 32.818,284.467 30.360,283.582 27.667 C 283.064 26.091,282.411 25.290,281.492 25.107 C 280.637 24.936,275.785 25.006,275.394 25.195 M248.500 25.269 C 247.261 25.710,247.001 26.187,246.997 28.033 C 246.992 30.628,246.535 32.053,245.266 33.432 L 244.513 34.250 244.507 30.620 C 244.497 25.270,244.547 25.333,240.333 25.333 C 235.966 25.333,236.168 25.005,236.163 32.117 C 236.158 40.375,235.827 44.050,234.820 47.020 C 234.218 48.796,234.218 48.910,234.821 49.513 C 236.384 51.077,237.760 48.221,238.421 42.042 L 238.533 41.000 240.270 41.000 L 242.007 41.000 241.962 44.375 L 241.917 47.750 240.589 47.833 C 238.682 47.953,238.143 49.295,239.682 50.091 C 240.668 50.601,243.191 50.259,243.854 49.526 L 244.291 49.042 244.743 49.521 C 245.591 50.420,248.141 49.652,251.121 47.600 C 252.180 46.871,251.940 46.853,253.236 47.758 C 255.406 49.276,258.069 50.322,258.927 49.996 C 260.472 49.409,260.372 48.006,258.750 47.502 C 257.934 47.248,255.064 45.769,254.520 45.321 L 254.123 44.995 254.950 44.120 C 257.867 41.037,259.415 36.378,257.542 36.325 C 257.381 36.321,254.700 36.318,251.583 36.319 C 248.380 36.320,246.062 36.260,246.250 36.181 C 247.978 35.456,249.490 32.170,249.497 29.125 L 249.500 27.833 251.565 27.833 L 253.630 27.833 253.704 30.875 C 253.787 34.292,253.897 34.738,254.744 35.091 C 255.541 35.424,258.512 35.422,259.158 35.088 C 260.055 34.624,260.811 32.081,260.331 31.145 C 259.537 29.599,258.000 29.916,258.000 31.624 C 258.000 32.874,257.914 33.000,257.066 33.000 L 256.333 33.000 256.331 29.875 C 256.327 25.226,256.365 25.266,251.863 25.215 C 250.151 25.196,248.637 25.220,248.500 25.269 M155.400 25.900 L 154.833 26.467 154.833 30.564 L 154.833 34.661 155.319 35.206 L 155.805 35.750 159.319 35.801 L 162.833 35.852 162.833 36.759 L 162.833 37.667 158.489 37.667 C 153.440 37.667,153.172 37.730,153.172 38.917 C 153.172 39.979,153.634 40.167,156.251 40.167 L 158.358 40.167 158.012 40.606 C 157.548 41.196,157.570 41.414,158.255 42.916 C 158.579 43.626,158.989 44.731,159.166 45.371 C 159.343 46.012,159.575 46.640,159.681 46.768 C 159.845 46.965,159.300 47.000,156.046 47.000 C 151.724 47.000,151.600 47.036,151.600 48.280 C 151.600 49.571,150.860 49.500,164.276 49.500 L 176.182 49.500 176.591 49.091 C 177.116 48.566,177.126 47.843,176.614 47.362 C 176.242 47.013,176.098 47.000,172.513 47.000 C 169.604 47.000,168.817 46.955,168.888 46.792 C 170.911 42.115,171.189 41.178,170.741 40.537 L 170.481 40.167 172.551 40.167 C 174.961 40.167,175.500 39.941,175.500 38.934 C 175.500 37.712,175.308 37.667,170.198 37.667 L 165.667 37.667 165.667 36.759 L 165.667 35.852 169.164 35.801 L 172.661 35.750 173.205 35.205 L 173.750 34.660 173.750 30.676 C 173.750 24.810,174.704 25.339,164.108 25.336 L 155.967 25.333 155.400 25.900 M353.063 25.527 C 352.869 25.621,352.440 26.235,352.109 26.891 C 350.511 30.063,348.822 32.523,346.965 34.383 C 345.281 36.069,345.517 37.500,347.479 37.500 C 349.088 37.500,355.167 28.945,355.167 26.679 C 355.167 25.610,354.099 25.025,353.063 25.527 M361.439 25.679 C 360.852 26.141,360.854 26.969,361.445 27.985 C 362.909 30.502,367.191 36.288,368.224 37.145 C 369.632 38.314,371.426 36.070,370.101 34.797 C 368.556 33.312,365.474 29.342,364.131 27.108 C 363.050 25.309,362.369 24.948,361.439 25.679 M319.147 26.147 L 318.500 26.794 318.500 38.155 L 318.500 49.515 318.909 49.924 C 319.406 50.421,320.142 50.458,320.690 50.015 L 321.083 49.696 321.129 38.848 L 321.174 28.000 322.839 28.000 L 324.504 28.000 324.239 28.625 C 322.105 33.654,322.084 33.889,323.558 36.043 C 325.667 39.126,325.454 41.491,323.067 41.498 C 321.789 41.501,321.369 42.107,321.914 43.161 C 322.381 44.064,324.649 44.186,326.048 43.383 C 328.067 42.225,327.773 37.574,325.490 34.550 L 324.832 33.679 325.262 32.715 C 328.452 25.559,328.434 25.500,323.056 25.500 L 319.794 25.500 319.147 26.147 M329.534 25.724 C 328.471 26.314,328.500 26.005,328.500 36.899 L 328.500 46.790 327.458 46.991 C 325.221 47.424,324.802 49.667,326.958 49.667 C 327.662 49.667,335.674 47.930,336.152 47.674 C 337.202 47.113,336.537 45.140,335.382 45.389 C 335.126 45.444,334.073 45.671,333.042 45.893 L 331.167 46.298 331.167 42.392 L 331.167 38.485 332.339 38.534 L 333.512 38.583 334.162 40.527 C 336.130 46.404,340.523 51.091,342.561 49.488 C 343.396 48.831,343.198 47.969,342.042 47.237 C 340.734 46.410,338.500 44.169,338.500 43.686 C 338.500 43.614,339.167 43.057,339.981 42.449 C 342.324 40.700,342.835 39.814,341.969 39.006 C 341.242 38.330,340.676 38.529,338.897 40.088 C 338.005 40.869,337.218 41.450,337.148 41.379 C 337.078 41.308,336.793 40.631,336.514 39.875 L 336.008 38.500 338.021 38.500 C 341.704 38.500,341.667 38.567,341.667 32.000 C 341.667 26.641,341.600 26.233,340.652 25.743 C 340.010 25.411,330.129 25.394,329.534 25.724 M96.670 52.708 C 96.668 67.444,96.698 79.500,96.735 79.500 C 96.773 79.500,97.139 78.919,97.547 78.208 C 106.523 62.606,106.447 42.639,97.355 27.083 L 96.673 25.917 96.670 52.708 M374.362 26.552 C 373.901 27.043,373.887 27.887,374.333 28.333 C 374.659 28.659,374.889 28.667,384.333 28.667 L 394.000 28.667 394.000 38.000 L 394.000 47.333 391.926 47.333 C 389.638 47.333,389.333 47.473,389.333 48.524 C 389.333 49.839,390.436 50.276,393.133 50.032 C 396.942 49.687,396.667 50.645,396.667 37.750 L 396.667 27.300 396.100 26.733 L 395.533 26.167 385.129 26.167 L 374.725 26.167 374.362 26.552 M193.000 26.615 C 191.690 27.115,191.846 28.029,193.458 29.289 C 194.169 29.845,195.075 30.607,195.472 30.983 C 196.571 32.023,197.609 31.878,197.918 30.641 C 198.222 29.424,194.222 26.149,193.000 26.615 M273.397 27.694 C 273.174 27.802,272.786 28.457,272.344 29.474 C 271.522 31.365,270.445 33.148,269.274 34.555 C 267.652 36.504,269.115 38.615,270.824 36.792 L 271.332 36.250 271.333 36.679 C 271.334 37.523,271.912 37.815,273.685 37.869 L 275.279 37.917 274.992 39.583 C 274.398 43.039,273.083 45.484,270.875 47.239 C 268.795 48.892,270.059 50.914,272.262 49.458 C 275.088 47.591,277.031 43.929,277.688 39.234 L 277.884 37.833 280.025 37.833 L 282.167 37.833 282.167 38.375 C 282.166 39.815,281.804 45.199,281.647 46.083 C 281.400 47.481,281.338 47.529,279.813 47.477 C 277.982 47.414,277.410 47.982,278.111 49.168 C 278.967 50.618,283.095 50.249,283.876 48.653 C 284.422 47.536,284.790 44.037,284.873 39.167 C 284.944 35.005,285.166 35.125,277.481 35.198 L 272.046 35.250 272.864 34.038 C 274.026 32.316,275.500 29.314,275.500 28.669 C 275.500 27.772,274.343 27.235,273.397 27.694 M171.000 28.583 L 171.000 29.500 164.167 29.500 L 157.333 29.500 157.333 28.583 L 157.333 27.667 164.167 27.667 L 171.000 27.667 171.000 28.583 M242.000 29.833 L 242.000 31.833 240.333 31.833 L 238.667 31.833 238.667 29.833 L 238.667 27.833 240.333 27.833 L 242.000 27.833 242.000 29.833 M339.000 29.333 L 339.000 30.667 335.083 30.667 L 331.167 30.667 331.167 29.333 L 331.167 28.000 335.083 28.000 L 339.000 28.000 339.000 29.333 M374.685 31.260 C 373.832 31.978,374.114 33.149,375.204 33.419 C 376.363 33.705,390.966 33.416,391.316 33.099 C 391.761 32.697,391.776 31.839,391.348 31.310 L 391.030 30.917 383.116 30.870 L 375.203 30.824 374.685 31.260 M140.000 31.917 L 140.391 32.333 136.775 32.333 L 133.159 32.333 133.432 31.917 L 133.705 31.500 136.657 31.500 C 139.590 31.500,139.611 31.503,140.000 31.917 M171.000 32.583 L 171.000 33.500 164.167 33.500 L 157.333 33.500 157.333 32.583 L 157.333 31.667 164.167 31.667 L 171.000 31.667 171.000 32.583 M339.000 34.583 L 339.000 36.000 335.083 36.000 L 331.167 36.000 331.167 34.583 L 331.167 33.167 335.083 33.167 L 339.000 33.167 339.000 34.583 M191.409 34.076 C 190.630 34.855,190.730 35.031,192.972 36.852 C 195.962 39.279,196.152 39.363,196.924 38.591 C 197.716 37.799,197.514 37.255,195.917 35.890 C 193.490 33.817,192.191 33.294,191.409 34.076 M242.000 36.333 L 242.000 38.333 240.333 38.333 L 238.667 38.333 238.667 36.333 L 238.667 34.333 240.333 34.333 L 242.000 34.333 242.000 36.333 M140.667 35.250 L 140.667 36.000 136.667 36.000 L 132.667 36.000 132.667 35.250 L 132.667 34.500 136.667 34.500 L 140.667 34.500 140.667 35.250 M355.715 34.751 C 355.518 34.890,355.195 35.433,354.999 35.960 C 354.084 38.410,352.519 41.955,351.438 44.026 L 350.250 46.302 348.725 46.359 C 346.556 46.441,345.633 47.627,346.939 48.655 C 347.525 49.115,350.942 49.037,364.583 48.249 L 366.250 48.153 366.836 49.035 C 367.813 50.505,369.667 50.283,369.667 48.695 C 369.667 48.075,367.669 44.899,366.085 43.000 C 365.664 42.496,364.948 41.624,364.494 41.062 C 363.363 39.664,362.531 39.370,361.609 40.044 C 360.891 40.569,361.153 41.282,362.881 43.497 C 363.767 44.634,364.461 45.594,364.424 45.632 C 364.333 45.723,353.648 46.204,353.564 46.120 C 353.528 46.084,354.287 44.429,355.251 42.442 C 358.286 36.185,358.530 35.390,357.616 34.750 C 357.157 34.428,356.176 34.429,355.715 34.751 M309.333 36.583 L 309.333 37.667 303.833 37.667 L 298.333 37.667 298.333 36.583 L 298.333 35.500 303.833 35.500 L 309.333 35.500 309.333 36.583 M377.032 36.004 C 376.066 36.593,376.000 36.978,376.000 42.002 L 376.000 46.515 376.409 46.924 C 377.302 47.817,378.667 47.162,378.667 45.841 L 378.667 45.167 383.492 45.167 C 390.094 45.167,389.667 45.490,389.667 40.500 C 389.667 35.380,390.073 35.666,382.808 35.667 C 377.862 35.668,377.554 35.686,377.032 36.004 M245.151 36.101 C 245.665 36.357,245.675 36.381,245.399 36.686 C 244.722 37.434,245.391 38.833,246.426 38.833 C 246.791 38.833,246.833 38.904,246.833 39.506 C 246.833 40.494,247.817 42.317,249.357 44.184 L 249.990 44.951 249.620 45.296 C 249.109 45.771,246.980 46.891,245.625 47.398 L 244.500 47.818 244.500 41.826 C 244.500 38.530,244.526 35.833,244.558 35.833 C 244.589 35.833,244.857 35.954,245.151 36.101 M227.667 37.429 C 227.667 37.848,225.603 40.905,224.606 41.963 L 223.777 42.842 223.293 42.379 C 222.666 41.779,221.533 40.055,220.768 38.536 L 220.162 37.333 223.915 37.333 C 225.978 37.333,227.667 37.376,227.667 37.429 M387.000 40.500 L 387.000 42.833 382.833 42.833 L 378.667 42.833 378.667 40.500 L 378.667 38.167 382.833 38.167 L 387.000 38.167 387.000 40.500 M127.069 38.904 C 125.845 39.437,125.833 39.490,125.833 44.844 L 125.833 49.642 126.272 49.988 C 126.867 50.455,127.585 50.430,128.091 49.924 L 128.500 49.515 128.500 45.341 L 128.500 41.167 136.753 41.167 L 145.007 41.167 144.962 44.542 L 144.917 47.917 143.250 47.962 C 141.056 48.023,140.502 48.695,141.679 49.871 L 142.191 50.383 144.035 50.277 C 147.543 50.077,147.517 50.122,147.460 44.309 C 147.412 39.369,147.420 39.404,146.214 38.894 C 145.433 38.563,127.830 38.572,127.069 38.904 M254.489 40.200 C 253.590 41.650,252.398 43.167,252.158 43.167 C 251.804 43.167,249.167 39.444,249.167 38.945 C 249.167 38.884,250.555 38.833,252.252 38.833 L 255.337 38.833 254.489 40.200 M168.539 40.375 C 168.446 40.490,168.032 41.452,167.619 42.513 C 167.205 43.574,166.627 45.018,166.335 45.721 L 165.802 47.000 163.625 47.000 C 161.464 47.000,161.451 46.998,161.748 46.669 C 162.315 46.042,161.248 41.996,160.147 40.596 L 159.809 40.167 164.258 40.167 C 167.796 40.167,168.673 40.209,168.539 40.375 M309.333 41.333 L 309.333 42.500 303.833 42.500 L 298.333 42.500 298.333 41.333 L 298.333 40.167 303.833 40.167 L 309.333 40.167 309.333 41.333 M131.985 42.380 C 131.097 42.979,131.005 43.318,131.002 46.019 C 131.000 48.829,131.187 49.333,132.233 49.333 C 132.822 49.333,133.500 48.770,133.500 48.281 C 133.500 48.026,133.845 48.000,137.267 48.000 L 141.033 48.000 141.600 47.433 L 142.167 46.867 142.167 45.054 C 142.167 42.045,142.084 42.000,136.530 42.000 C 132.662 42.000,132.533 42.011,131.985 42.380 M139.667 45.083 L 139.667 46.000 136.583 46.000 L 133.500 46.000 133.500 45.083 L 133.500 44.167 136.583 44.167 L 139.667 44.167 139.667 45.083 M72.500 64.833 L 72.500 83.667 77.583 83.667 L 82.667 83.667 82.667 64.833 L 82.667 46.000 77.583 46.000 L 72.500 46.000 72.500 64.833 M233.605 60.911 C 231.943 61.504,231.015 62.979,231.005 65.042 L 231.000 66.167 230.167 66.167 L 229.333 66.167 229.333 67.000 L 229.333 67.833 230.167 67.833 L 231.000 67.833 231.000 72.667 L 231.000 77.500 232.083 77.500 L 233.167 77.500 233.167 72.667 L 233.167 67.833 234.500 67.833 L 235.833 67.833 235.833 67.000 L 235.833 66.167 234.500 66.167 L 233.167 66.167 233.168 65.375 C 233.170 63.346,233.959 62.405,235.537 62.548 C 236.599 62.644,236.487 62.750,236.760 61.391 C 236.895 60.715,234.974 60.423,233.605 60.911 M195.000 69.250 L 195.000 77.500 196.083 77.500 L 197.167 77.500 197.167 74.074 C 197.167 69.027,197.721 67.795,199.989 67.795 C 202.043 67.795,202.394 68.619,202.471 73.625 L 202.531 77.500 203.516 77.500 L 204.500 77.500 204.500 73.354 C 204.500 68.887,204.416 68.327,203.585 67.237 C 202.297 65.548,199.193 65.533,197.629 67.207 L 197.167 67.702 197.167 64.351 L 197.167 61.000 196.083 61.000 L 195.000 61.000 195.000 69.250 M389.500 64.198 L 389.500 67.396 389.042 66.973 C 388.012 66.023,385.893 65.716,384.244 66.278 C 380.217 67.650,379.859 75.402,383.737 77.237 C 385.548 78.093,388.092 77.679,389.215 76.344 L 389.667 75.808 389.667 76.654 L 389.667 77.500 390.690 77.500 L 391.714 77.500 391.607 76.476 C 391.548 75.912,391.500 72.200,391.500 68.226 L 391.500 61.000 390.500 61.000 L 389.500 61.000 389.500 64.198 M295.167 61.833 C 294.723 62.277,294.706 63.500,295.138 63.891 C 296.009 64.679,297.500 64.019,297.500 62.845 C 297.500 61.682,295.978 61.022,295.167 61.833 M330.917 61.732 C 327.411 62.588,325.294 65.210,325.048 69.000 C 324.693 74.473,327.563 77.672,332.822 77.664 C 336.019 77.659,336.899 77.303,336.627 76.125 C 336.419 75.227,336.455 75.240,335.210 75.602 C 331.302 76.738,327.922 74.697,327.323 70.840 C 326.521 65.670,330.818 61.993,335.631 63.731 C 336.427 64.019,336.465 63.984,336.737 62.732 C 336.958 61.716,333.451 61.113,330.917 61.732 M124.333 69.583 L 124.333 77.500 128.750 77.500 L 133.167 77.500 133.167 76.583 L 133.167 75.667 129.833 75.667 L 126.500 75.667 126.500 72.917 L 126.500 70.167 129.500 70.167 L 132.500 70.167 132.500 69.250 L 132.500 68.333 129.500 68.333 L 126.500 68.333 126.500 65.917 L 126.500 63.500 129.667 63.500 L 132.833 63.500 132.833 62.583 L 132.833 61.667 128.583 61.667 L 124.333 61.667 124.333 69.583 M212.667 69.667 L 212.667 77.500 213.750 77.500 L 214.833 77.500 214.833 69.667 L 214.833 61.833 213.750 61.833 L 212.667 61.833 212.667 69.667 M363.667 69.667 L 363.667 77.500 368.000 77.500 L 372.333 77.500 372.333 76.583 L 372.333 75.667 369.083 75.667 L 365.833 75.667 365.833 68.750 L 365.833 61.833 364.750 61.833 L 363.667 61.833 363.667 69.667 M21.667 67.250 L 21.667 72.333 40.500 72.333 L 59.333 72.333 59.333 67.250 L 59.333 62.167 40.500 62.167 L 21.667 62.167 21.667 67.250 M167.042 63.785 L 166.167 64.043 166.167 65.105 L 166.167 66.167 165.333 66.167 L 164.500 66.167 164.500 67.000 L 164.500 67.833 165.333 67.833 L 166.167 67.833 166.171 71.375 C 166.177 76.805,166.606 77.688,169.244 77.688 C 170.894 77.688,171.000 77.626,171.000 76.661 L 171.000 75.844 170.114 75.867 C 168.456 75.911,168.333 75.588,168.333 71.172 L 168.333 67.833 169.750 67.833 L 171.167 67.833 171.167 67.000 L 171.167 66.167 169.750 66.167 L 168.333 66.167 168.333 64.833 C 168.333 63.343,168.388 63.388,167.042 63.785 M288.792 63.767 L 288.000 64.010 288.000 65.088 L 288.000 66.167 287.083 66.167 L 286.167 66.167 286.167 67.000 L 286.167 67.833 287.083 67.833 L 288.000 67.833 288.000 71.715 C 288.000 77.005,288.347 77.695,291.004 77.686 C 292.759 77.681,292.860 77.625,292.800 76.694 L 292.750 75.917 291.900 75.902 C 290.101 75.872,290.000 75.621,290.000 71.172 L 290.000 67.833 291.500 67.833 L 293.000 67.833 293.000 67.000 L 293.000 66.167 291.500 66.167 L 290.000 66.167 290.000 64.833 C 290.000 63.351,290.037 63.384,288.792 63.767 M375.625 63.795 L 374.833 64.059 374.833 65.113 L 374.833 66.167 373.917 66.167 L 373.000 66.167 373.000 67.000 L 373.000 67.833 373.917 67.833 L 374.833 67.833 374.837 71.375 C 374.843 76.799,375.289 77.713,377.918 77.698 C 379.558 77.688,379.667 77.624,379.667 76.657 L 379.667 75.837 378.736 75.877 C 377.078 75.948,377.000 75.746,377.000 71.407 L 377.000 67.833 378.417 67.833 L 379.833 67.833 379.833 67.000 L 379.833 66.167 378.417 66.167 L 377.000 66.167 377.000 64.833 C 377.000 63.322,377.015 63.333,375.625 63.795 M149.770 66.034 C 144.899 66.661,143.753 74.872,148.213 77.198 C 149.464 77.851,153.669 77.787,154.578 77.102 C 154.824 76.917,154.626 75.497,154.355 75.502 C 154.297 75.503,153.837 75.615,153.333 75.750 C 150.620 76.478,148.441 75.644,147.766 73.619 C 147.305 72.236,147.027 72.333,151.437 72.333 L 155.373 72.333 155.301 70.792 C 155.137 67.272,153.187 65.594,149.770 66.034 M161.956 66.015 C 161.128 66.210,160.560 66.597,160.093 67.283 L 159.711 67.845 159.600 67.006 L 159.489 66.167 158.476 66.167 C 157.622 66.167,157.480 66.208,157.566 66.430 C 157.621 66.575,157.667 69.125,157.667 72.097 L 157.667 77.500 158.750 77.500 L 159.833 77.500 159.833 74.342 C 159.833 69.346,160.433 68.000,162.658 68.000 L 163.333 68.000 163.333 67.000 C 163.333 66.450,163.264 66.000,163.180 66.000 C 163.096 66.000,162.927 65.970,162.805 65.934 C 162.683 65.897,162.301 65.934,161.956 66.015 M176.805 66.015 C 171.930 66.554,170.747 74.865,175.213 77.199 C 176.200 77.715,179.075 77.831,180.606 77.417 C 181.867 77.075,181.874 77.067,181.605 76.284 C 181.317 75.446,181.312 75.444,180.320 75.739 C 177.708 76.514,175.423 75.654,174.777 73.652 C 174.317 72.229,174.028 72.333,178.417 72.333 L 182.333 72.333 182.333 71.114 C 182.333 67.531,180.274 65.632,176.805 66.015 M222.817 66.011 C 221.861 66.162,221.057 66.570,220.460 67.209 L 220.000 67.702 220.000 66.934 L 220.000 66.167 218.958 66.167 L 217.917 66.167 217.963 71.833 L 218.009 77.500 219.088 77.500 L 220.167 77.500 220.167 74.074 C 220.167 68.811,221.094 67.141,223.636 67.825 C 225.175 68.239,225.381 68.896,225.464 73.625 L 225.531 77.500 226.516 77.500 L 227.500 77.500 227.500 73.354 C 227.500 70.071,227.447 69.059,227.247 68.491 C 226.579 66.599,224.933 65.678,222.817 66.011 M254.417 65.943 C 254.233 65.981,253.920 66.048,253.721 66.090 C 253.245 66.191,252.365 66.941,251.977 67.576 L 251.668 68.083 251.667 67.125 L 251.667 66.167 250.681 66.167 L 249.696 66.167 249.681 71.833 L 249.666 77.500 250.824 77.500 L 251.982 77.500 252.033 73.792 C 252.099 68.966,252.435 68.213,254.610 68.033 L 255.500 67.959 255.500 66.979 C 255.500 66.441,255.431 66.000,255.347 66.000 C 255.263 66.000,255.094 65.971,254.972 65.936 C 254.850 65.902,254.600 65.904,254.417 65.943 M261.948 66.016 C 261.075 66.153,260.535 66.449,259.817 67.184 L 259.353 67.659 259.241 66.913 L 259.129 66.167 258.231 66.167 L 257.333 66.167 257.333 71.833 L 257.333 77.500 258.408 77.500 L 259.483 77.500 259.533 73.625 L 259.583 69.750 260.123 68.973 C 261.052 67.635,262.677 67.332,263.579 68.329 C 264.213 69.029,264.318 69.787,264.326 73.708 L 264.333 77.500 265.417 77.500 L 266.500 77.500 266.500 73.702 C 266.500 70.095,266.519 69.867,266.875 69.160 C 267.566 67.789,269.153 67.334,270.246 68.193 C 271.183 68.930,271.245 69.247,271.305 73.542 L 271.360 77.500 272.356 77.500 L 273.353 77.500 273.302 73.042 C 273.245 68.125,273.195 67.879,272.057 66.802 C 270.670 65.491,268.166 65.668,266.650 67.183 C 266.258 67.575,265.909 67.811,265.874 67.706 C 265.474 66.506,263.697 65.742,261.948 66.016 M317.812 66.014 C 316.876 66.159,316.499 66.351,315.652 67.116 L 315.000 67.705 315.000 66.936 L 315.000 66.167 313.974 66.167 L 312.949 66.167 313.058 68.193 C 313.118 69.307,313.167 71.857,313.167 73.860 L 313.167 77.500 314.242 77.500 L 315.316 77.500 315.367 73.528 L 315.417 69.557 315.899 68.925 C 316.886 67.631,318.474 67.382,319.574 68.348 C 320.393 69.067,320.500 69.697,320.500 73.811 L 320.500 77.500 321.596 77.500 L 322.692 77.500 322.635 73.208 C 322.587 69.524,322.537 68.822,322.281 68.250 C 321.504 66.515,319.866 65.696,317.812 66.014 M187.917 66.176 C 183.236 67.546,182.433 74.750,186.699 77.088 C 188.061 77.834,192.833 77.819,192.833 77.069 C 192.833 76.334,192.416 75.485,192.102 75.579 C 188.512 76.657,186.254 75.211,186.254 71.833 C 186.254 68.661,188.446 67.025,191.486 67.928 C 191.970 68.072,192.383 68.165,192.403 68.136 C 192.579 67.884,192.829 66.599,192.721 66.502 C 192.197 66.033,189.120 65.824,187.917 66.176 M239.950 66.233 C 235.253 67.965,235.134 75.818,239.781 77.401 C 244.673 79.068,248.874 74.297,246.977 69.228 C 246.019 66.666,242.659 65.234,239.950 66.233 M277.603 66.331 C 276.340 66.735,276.282 66.804,276.560 67.594 C 276.813 68.310,276.881 68.325,278.000 67.910 C 280.258 67.071,281.918 67.771,282.212 69.686 L 282.305 70.289 280.861 70.374 C 276.868 70.611,274.680 73.038,275.896 75.880 C 276.772 77.929,280.290 78.350,282.125 76.627 L 282.500 76.275 282.500 76.624 C 282.500 77.379,282.658 77.500,283.643 77.500 L 284.583 77.500 284.537 73.708 C 284.471 68.276,284.202 67.315,282.512 66.458 C 281.370 65.880,279.192 65.824,277.603 66.331 M303.011 66.278 C 299.457 67.577,298.394 73.803,301.291 76.347 C 304.368 79.048,309.041 77.741,310.326 73.819 C 311.929 68.930,307.695 64.566,303.011 66.278 M341.334 66.291 C 337.160 67.764,336.828 75.056,340.841 77.140 C 344.469 79.024,348.638 76.595,348.954 72.412 C 349.307 67.743,345.618 64.779,341.334 66.291 M134.072 66.458 C 134.123 66.619,134.458 67.500,134.815 68.417 C 135.173 69.333,136.091 71.755,136.857 73.798 L 138.249 77.513 139.323 77.465 L 140.396 77.417 140.858 76.250 C 141.610 74.353,144.667 66.319,144.667 66.240 C 144.667 66.199,144.159 66.167,143.538 66.167 L 142.410 66.167 141.435 69.125 C 140.900 70.752,140.350 72.324,140.214 72.619 C 140.079 72.914,139.838 73.574,139.680 74.085 L 139.392 75.015 138.005 70.882 C 136.249 65.648,136.563 66.167,135.150 66.167 C 134.109 66.167,133.988 66.199,134.072 66.458 M295.167 71.833 L 295.167 77.500 296.250 77.500 L 297.333 77.500 297.333 71.833 L 297.333 66.167 296.250 66.167 L 295.167 66.167 295.167 71.833 M151.967 67.950 C 152.671 68.476,153.032 69.083,153.123 69.898 L 153.210 70.667 150.363 70.667 L 147.516 70.667 147.753 69.880 C 148.361 67.858,150.519 66.869,151.967 67.950 M178.967 67.950 C 179.671 68.476,180.032 69.083,180.123 69.898 L 180.210 70.667 177.363 70.667 L 174.516 70.667 174.753 69.880 C 175.361 67.858,177.519 66.869,178.967 67.950 M242.713 67.740 C 246.384 68.546,245.588 76.000,241.831 76.000 C 238.218 76.000,237.352 68.510,240.878 67.759 C 241.611 67.603,241.919 67.562,242.083 67.600 C 242.175 67.621,242.458 67.684,242.713 67.740 M306.618 67.973 C 308.077 68.758,308.776 71.664,307.996 73.702 C 306.391 77.896,301.503 76.046,301.877 71.386 C 302.114 68.431,304.405 66.782,306.618 67.973 M344.833 67.916 C 347.273 69.178,347.260 74.283,344.814 75.658 C 341.507 77.516,338.693 72.416,341.055 68.846 C 341.778 67.754,343.635 67.297,344.833 67.916 M388.064 68.177 C 390.001 69.504,389.985 74.127,388.038 75.409 C 385.748 76.918,383.167 75.023,383.167 71.833 C 383.167 68.680,385.862 66.668,388.064 68.177 M282.333 72.923 C 282.333 75.582,279.922 77.065,278.208 75.460 C 276.723 74.068,278.708 71.856,281.458 71.839 L 282.333 71.833 282.333 72.923 M356.208 74.622 C 355.653 74.672,355.500 74.753,355.500 74.994 C 355.500 75.317,354.455 79.536,354.249 80.042 C 354.146 80.296,354.236 80.333,354.950 80.333 L 355.770 80.333 356.324 79.136 C 356.903 77.888,357.709 75.746,357.897 74.958 C 358.017 74.454,358.034 74.458,356.208 74.622 M351.053 74.834 C 350.284 75.144,350.042 76.709,350.667 77.333 C 351.187 77.854,352.374 77.795,352.821 77.228 C 353.865 75.901,352.612 74.206,351.053 74.834 M394.726 74.832 C 393.262 75.423,393.677 77.667,395.250 77.667 C 395.836 77.667,396.043 77.582,396.321 77.228 C 397.321 75.956,396.182 74.244,394.726 74.832 M27.975 97.768 C 28.720 98.289,32.782 100.141,35.000 100.970 C 47.121 105.498,60.919 105.192,72.833 100.132 C 74.631 99.368,78.000 97.705,78.000 97.582 C 78.000 97.537,66.658 97.500,52.796 97.500 C 29.608 97.500,27.623 97.521,27.975 97.768 " stroke="none" fill="#142c84" fill-rule="evenodd"></path></g></svg>