<svg xmlns="http://www.w3.org/2000/svg" viewBox="0 0 237.18 65.08">
  <defs>
    <style>.cls-1,.cls-2{fill:#222;}.cls-2{fill-rule:evenodd;}</style>
  </defs>
  <g id="Layer_2" data-name="Layer 2">
    <g id="Layer_1-2" data-name="Layer 1">
      <path class="cls-1" d="M68.62,0H79.68c6.77,0,10.4,3.8,10.4,9.44,0,4-2.15,6.37-5.62,7.77l6.7,12.3h-6l-6.59-12.3H74v12.3H68.62ZM78.89,12.77c4,0,5.75-1.11,5.75-4.15,0-2.56-1.79-4.15-5.78-4.15H74v8.3Z"/>
      <path class="cls-1" d="M113.5,18.1c0-6.76,4.09-11.44,10.57-11.44,5.41,0,9.15,3.15,9.51,8h-5a4.35,4.35,0,0,0-4.45-3.75c-3.22,0-5.36,2.68-5.36,7.15s2.1,7.25,5.36,7.25a4.32,4.32,0,0,0,4.45-3.75h5c-.37,4.7-3.92,8-9.48,8C117.49,29.51,113.5,24.79,113.5,18.1Z"/>
      <path class="cls-1" d="M134.89,18.1c0-6.86,4.12-11.44,10.61-11.44s10.6,4.58,10.6,11.44S152,29.51,145.5,29.51,134.89,24.94,134.89,18.1Zm15.92,0c0-4-1.76-7.29-5.28-7.29s-5.35,3.24-5.35,7.29,1.76,7.25,5.35,7.25S150.81,22.13,150.81,18.08Z"/>
      <path class="cls-1" d="M157.6,7.38h5.06v3.68h.23a5.52,5.52,0,0,1,5.46-4,13.55,13.55,0,0,1,1.87.14V12a10.21,10.21,0,0,0-2.42-.3,4.73,4.73,0,0,0-5,4.8v13H157.6Z"/>
      <path class="cls-1" d="M170.72,18.47c0-7.38,4-11.38,9.13-11.38A6.56,6.56,0,0,1,186.17,11h.22V0h5.23V29.51h-5.13V26h-.32c-.82,1.61-2.52,3.49-6.32,3.49C174.64,29.51,170.72,25.76,170.72,18.47Zm15.77,0c0-4.29-1.84-7.07-5.2-7.07s-5.26,3-5.26,7.07,1.82,7.18,5.26,7.18S186.49,22.73,186.49,18.44Z"/>
      <path class="cls-1" d="M216.28,18.47c0-7.38,4-11.38,9.13-11.38A6.58,6.58,0,0,1,231.74,11H232V0h5.23V29.51h-5.13V26h-.31c-.82,1.61-2.54,3.46-6.34,3.46C220.18,29.48,216.28,25.76,216.28,18.47Zm15.77,0c0-4.29-1.84-7.07-5.2-7.07s-5.26,3-5.26,7.07,1.82,7.18,5.26,7.18S232.05,22.73,232.05,18.44Z"/>
      <path class="cls-1" d="M68.52,35.27h18.9v4.48H73.86V48H86.12v4.48H73.86V64.77H68.52Z"/>
      <path class="cls-1" d="M102.74,42.64H108V64.77h-5.06V60.84h-.23c-1,2.48-3.34,3.93-6.65,3.93-4.35,0-7.38-2.72-7.38-8V42.64h5.22V55.93c0,2.81,1.67,4.58,4.17,4.58a4.71,4.71,0,0,0,4.72-5Z"/>
      <path class="cls-1" d="M122.33,46.68H118V58.12c0,2.1,1,2.56,2.36,2.56a6.66,6.66,0,0,0,1.53-.2l.88,4.08a10.8,10.8,0,0,1-3.07.51c-3.92.12-7-1.93-6.92-6.09V46.68h-3.14v-4h3.14v-5.3H118v5.3h4.36Z"/>
      <path class="cls-1" d="M138.77,42.64H144V64.77h-5.06V60.84h-.23c-1,2.48-3.34,3.93-6.65,3.93-4.35,0-7.38-2.72-7.38-8V42.64h5.22V55.93c0,2.81,1.67,4.58,4.17,4.58a4.7,4.7,0,0,0,4.71-5Z"/>
      <path class="cls-1" d="M147.32,42.64h5.05v3.69h.24a5.52,5.52,0,0,1,5.46-4,12.16,12.16,0,0,1,1.87.14v4.8a9.64,9.64,0,0,0-2.42-.31,4.73,4.73,0,0,0-5,4.8v13h-5.21Z"/>
      <path class="cls-1" d="M180.68,39.74a4.91,4.91,0,1,1,4.91,4.91A4.9,4.9,0,0,1,180.68,39.74Zm8.9,0a4,4,0,1,0-4,4A4,4,0,0,0,189.58,39.74Zm-5.65-2.32h2.17a1.39,1.39,0,0,1,1.41,1.42,1.45,1.45,0,0,1-.78,1.31l1,1.8h-.88L186,40.33h-1.24V42h-.79Zm1.91,2.29a.81.81,0,0,0,.81-.87.75.75,0,0,0-.79-.8h-1.14v1.67Z"/>
      <path class="cls-1" d="M160,53.84c0-6.83,4.14-11.49,10.47-11.49,5.45,0,10.12,3.42,10.12,11.18v1.6H165.12c0,3.79,2.28,5.58,5.65,5.58,2.25,0,4-.55,4.68-2.42h5.09c-.92,3.85-4.29,6.48-9.84,6.48C164,64.77,160,60.78,160,53.84Zm15.59-2.22a4.93,4.93,0,0,0-5-5.2,5.31,5.31,0,0,0-5.36,5.2Z"/>
      <path class="cls-1" d="M193.87,18.57c0-6.83,4.13-11.48,10.47-11.48,5.45,0,10.12,3.41,10.12,11.18v1.6H199c.05,3.79,2.28,5.57,5.65,5.57,2.25,0,4-.54,4.68-2.42h5.09c-.92,3.85-4.29,6.49-9.84,6.49C198,29.51,193.87,25.51,193.87,18.57Zm15.59-2.22a4.93,4.93,0,0,0-5-5.2,5.31,5.31,0,0,0-5.36,5.2Z"/>
      <path class="cls-1" d="M91.51,18.57c0-6.83,4.13-11.48,10.47-11.48,5.45,0,10.11,3.41,10.11,11.18v1.6H96.68c0,3.79,2.27,5.57,5.64,5.57,2.25,0,4-.54,4.69-2.42h5.08c-.92,3.85-4.29,6.49-9.84,6.49C95.58,29.51,91.51,25.51,91.51,18.57Zm15.58-2.22a4.93,4.93,0,0,0-5-5.2,5.32,5.32,0,0,0-5.36,5.2Z"/>
      <path class="cls-2" d="M28.9,28.66A4.13,4.13,0,1,0,33,32.79h0A4.13,4.13,0,0,0,28.9,28.66Z"/>
      <path class="cls-2" d="M53.38,28.66a4.13,4.13,0,1,0,4.13,4.13h0A4.13,4.13,0,0,0,53.38,28.66Z"/>
      <path class="cls-2" d="M4.13,28.66a4.13,4.13,0,1,0,4.13,4.13h0A4.13,4.13,0,0,0,4.13,28.66Z"/>
      <path class="cls-2" d="M25.35,56h0V43.87h0a3.41,3.41,0,0,1,6.81,0h0V56h0v.07a3.41,3.41,0,1,1-6.81,0Z"/>
      <path class="cls-2" d="M37.66,49.81h0v-34h0a3.41,3.41,0,0,1,6.81,0h0v34h0v.08a3.41,3.41,0,0,1-6.81,0Z"/>
      <path class="cls-2" d="M13,49.81h0v-34a3.4,3.4,0,0,1,6.8,0v34h0v.08a3.4,3.4,0,1,1-6.8,0Z"/>
      <path class="cls-2" d="M25.35,21.13h0V9h0a3.41,3.41,0,0,1,6.81,0h0V21.13h0v.07a3.41,3.41,0,1,1-6.81,0Z"/>
    </g>
  </g>
</svg>